<?xml version="1.0" encoding="UTF-8" standalone="no"?>
<!DOCTYPE svg PUBLIC "-//W3C//DTD SVG 1.1//EN"
 "http://www.w3.org/Graphics/SVG/1.1/DTD/svg11.dtd">
<!-- Generated by graphviz version 13.1.2 (20250808.2320)
 -->
<!-- Title: DependencyMap Pages: 1 -->
<svg width="1132pt" height="650pt"
 viewBox="0.00 0.00 1132.00 650.00" xmlns="http://www.w3.org/2000/svg" xmlns:xlink="http://www.w3.org/1999/xlink">
<g id="graph0" class="graph" transform="scale(1 1) rotate(0) translate(4 645.5)">
<title>DependencyMap</title>
<polygon fill="white" stroke="none" points="-4,4 -4,-645.5 1127.5,-645.5 1127.5,4 -4,4"/>
<g id="clust1" class="cluster">
<title>cluster_pio</title>
<polygon fill="honeydew" stroke="black" points="117.12,-411 117.12,-633.5 276.12,-633.5 276.12,-411 117.12,-411"/>
<text xml:space="preserve" text-anchor="middle" x="196.62" y="-616.2" font-family="Times,serif" font-size="14.00">PIO Fast Path (A+ Grade)</text>
</g>
<g id="clust2" class="cluster">
<title>cluster_dma</title>
<polygon fill="mistyrose" stroke="black" points="161.12,-8 161.12,-230.5 343.12,-230.5 343.12,-8 161.12,-8"/>
<text xml:space="preserve" text-anchor="middle" x="252.12" y="-213.2" font-family="Times,serif" font-size="14.00">DMA Path</text>
</g>
<!-- main -->
<g id="node1" class="node">
<title>main</title>
<path fill="lightblue" stroke="black" d="M87.12,-528C87.12,-528 57.12,-528 57.12,-528 51.12,-528 45.12,-522 45.12,-516 45.12,-516 45.12,-504 45.12,-504 45.12,-498 51.12,-492 57.12,-492 57.12,-492 87.12,-492 87.12,-492 93.12,-492 99.12,-498 99.12,-504 99.12,-504 99.12,-516 99.12,-516 99.12,-522 93.12,-528 87.12,-528"/>
<text xml:space="preserve" text-anchor="middle" x="72.12" y="-504.95" font-family="Times,serif" font-size="14.00">main</text>
</g>
<!-- init -->
<g id="node5" class="node">
<title>init</title>
<path fill="lightgreen" stroke="black" d="M87.12,-455C87.12,-455 57.12,-455 57.12,-455 51.12,-455 45.12,-449 45.12,-443 45.12,-443 45.12,-431 45.12,-431 45.12,-425 51.12,-419 57.12,-419 57.12,-419 87.12,-419 87.12,-419 93.12,-419 99.12,-425 99.12,-431 99.12,-431 99.12,-443 99.12,-443 99.12,-449 93.12,-455 87.12,-455"/>
<text xml:space="preserve" text-anchor="middle" x="72.12" y="-431.95" font-family="Times,serif" font-size="14.00">init</text>
</g>
<!-- main&#45;&gt;init -->
<g id="edge6" class="edge">
<title>main&#45;&gt;init</title>
<path fill="none" stroke="black" d="M72.12,-491.81C72.12,-484.23 72.12,-475.1 72.12,-466.54"/>
<polygon fill="black" stroke="black" points="75.63,-466.54 72.13,-456.54 68.63,-466.54 75.63,-466.54"/>
</g>
<!-- api -->
<g id="node2" class="node">
<title>api</title>
<path fill="lightblue" stroke="black" d="M231.12,-601C231.12,-601 201.12,-601 201.12,-601 195.12,-601 189.12,-595 189.12,-589 189.12,-589 189.12,-577 189.12,-577 189.12,-571 195.12,-565 201.12,-565 201.12,-565 231.12,-565 231.12,-565 237.12,-565 243.12,-571 243.12,-577 243.12,-577 243.12,-589 243.12,-589 243.12,-595 237.12,-601 231.12,-601"/>
<text xml:space="preserve" text-anchor="middle" x="216.12" y="-577.95" font-family="Times,serif" font-size="14.00">api</text>
</g>
<!-- packet_ops -->
<g id="node7" class="node">
<title>packet_ops</title>
<path fill="lightyellow" stroke="black" d="M242.5,-528C242.5,-528 189.75,-528 189.75,-528 183.75,-528 177.75,-522 177.75,-516 177.75,-516 177.75,-504 177.75,-504 177.75,-498 183.75,-492 189.75,-492 189.75,-492 242.5,-492 242.5,-492 248.5,-492 254.5,-498 254.5,-504 254.5,-504 254.5,-516 254.5,-516 254.5,-522 248.5,-528 242.5,-528"/>
<text xml:space="preserve" text-anchor="middle" x="216.12" y="-504.95" font-family="Times,serif" font-size="14.00">packet_ops</text>
</g>
<!-- api&#45;&gt;packet_ops -->
<g id="edge1" class="edge">
<title>api&#45;&gt;packet_ops</title>
<path fill="none" stroke="black" d="M216.12,-564.81C216.12,-557.23 216.12,-548.1 216.12,-539.54"/>
<polygon fill="black" stroke="black" points="219.63,-539.54 216.13,-529.54 212.63,-539.54 219.63,-539.54"/>
</g>
<!-- diagnostics -->
<g id="node3" class="node">
<title>diagnostics</title>
<path fill="lightblue" stroke="black" d="M348.5,-601C348.5,-601 295.75,-601 295.75,-601 289.75,-601 283.75,-595 283.75,-589 283.75,-589 283.75,-577 283.75,-577 283.75,-571 289.75,-565 295.75,-565 295.75,-565 348.5,-565 348.5,-565 354.5,-565 360.5,-571 360.5,-577 360.5,-577 360.5,-589 360.5,-589 360.5,-595 354.5,-601 348.5,-601"/>
<text xml:space="preserve" text-anchor="middle" x="322.12" y="-577.95" font-family="Times,serif" font-size="14.00">diagnostics</text>
</g>
<!-- config -->
<g id="node4" class="node">
<title>config</title>
<path fill="lightgreen" stroke="black" d="M420.12,-601C420.12,-601 390.12,-601 390.12,-601 384.12,-601 378.12,-595 378.12,-589 378.12,-589 378.12,-577 378.12,-577 378.12,-571 384.12,-565 390.12,-565 390.12,-565 420.12,-565 420.12,-565 426.12,-565 432.12,-571 432.12,-577 432.12,-577 432.12,-589 432.12,-589 432.12,-595 426.12,-601 420.12,-601"/>
<text xml:space="preserve" text-anchor="middle" x="405.12" y="-577.95" font-family="Times,serif" font-size="14.00">config</text>
</g>
<!-- hardware -->
<g id="node11" class="node">
<title>hardware</title>
<path fill="lightcoral" stroke="black" d="M165.25,-366.5C165.25,-366.5 123,-366.5 123,-366.5 117,-366.5 111,-360.5 111,-354.5 111,-354.5 111,-342.5 111,-342.5 111,-336.5 117,-330.5 123,-330.5 123,-330.5 165.25,-330.5 165.25,-330.5 171.25,-330.5 177.25,-336.5 177.25,-342.5 177.25,-342.5 177.25,-354.5 177.25,-354.5 177.25,-360.5 171.25,-366.5 165.25,-366.5"/>
<text xml:space="preserve" text-anchor="middle" x="144.12" y="-343.45" font-family="Times,serif" font-size="14.00">hardware</text>
</g>
<!-- init&#45;&gt;hardware -->
<g id="edge7" class="edge">
<title>init&#45;&gt;hardware</title>
<path fill="none" stroke="black" d="M86.35,-418.91C96.64,-406.55 110.72,-389.63 122.41,-375.58"/>
<polygon fill="black" stroke="black" points="125.01,-377.94 128.71,-368.01 119.63,-373.46 125.01,-377.94"/>
</g>
<!-- memory -->
<g id="node22" class="node">
<title>memory</title>
<path fill="lightgray" stroke="black" d="M65.38,-366.5C65.38,-366.5 26.87,-366.5 26.87,-366.5 20.88,-366.5 14.88,-360.5 14.88,-354.5 14.88,-354.5 14.88,-342.5 14.88,-342.5 14.88,-336.5 20.88,-330.5 26.88,-330.5 26.88,-330.5 65.38,-330.5 65.38,-330.5 71.38,-330.5 77.38,-336.5 77.38,-342.5 77.38,-342.5 77.38,-354.5 77.38,-354.5 77.38,-360.5 71.38,-366.5 65.38,-366.5"/>
<text xml:space="preserve" text-anchor="middle" x="46.12" y="-343.45" font-family="Times,serif" font-size="14.00">memory</text>
</g>
<!-- init&#45;&gt;memory -->
<g id="edge12" class="edge">
<title>init&#45;&gt;memory</title>
<path fill="none" stroke="black" d="M66.99,-418.91C63.45,-407.14 58.67,-391.23 54.57,-377.61"/>
<polygon fill="black" stroke="black" points="58.01,-376.87 51.78,-368.3 51.3,-378.88 58.01,-376.87"/>
</g>
<!-- runtime_config -->
<g id="node6" class="node">
<title>runtime_config</title>
<path fill="lightgreen" stroke="black" d="M538.12,-601C538.12,-601 462.12,-601 462.12,-601 456.12,-601 450.12,-595 450.12,-589 450.12,-589 450.12,-577 450.12,-577 450.12,-571 456.12,-565 462.12,-565 462.12,-565 538.12,-565 538.12,-565 544.12,-565 550.12,-571 550.12,-577 550.12,-577 550.12,-589 550.12,-589 550.12,-595 544.12,-601 538.12,-601"/>
<text xml:space="preserve" text-anchor="middle" x="500.12" y="-577.95" font-family="Times,serif" font-size="14.00">runtime_config</text>
</g>
<!-- 3c509b_pio -->
<g id="node15" class="node">
<title>3c509b_pio</title>
<path fill="lightpink" stroke="black" d="M203,-455C203,-455 147.25,-455 147.25,-455 141.25,-455 135.25,-449 135.25,-443 135.25,-443 135.25,-431 135.25,-431 135.25,-425 141.25,-419 147.25,-419 147.25,-419 203,-419 203,-419 209,-419 215,-425 215,-431 215,-431 215,-443 215,-443 215,-449 209,-455 203,-455"/>
<text xml:space="preserve" text-anchor="middle" x="175.12" y="-431.95" font-family="Times,serif" font-size="14.00">3c509b_pio</text>
</g>
<!-- packet_ops&#45;&gt;3c509b_pio -->
<g id="edge2" class="edge">
<title>packet_ops&#45;&gt;3c509b_pio</title>
<path fill="none" stroke="black" d="M206.2,-491.81C201.52,-483.7 195.82,-473.84 190.59,-464.78"/>
<polygon fill="black" stroke="black" points="193.75,-463.25 185.72,-456.34 187.69,-466.75 193.75,-463.25"/>
</g>
<!-- dma_mapping -->
<g id="node18" class="node">
<title>dma_mapping</title>
<path fill="lightsalmon" stroke="black" d="M287.5,-198C287.5,-198 216.75,-198 216.75,-198 210.75,-198 204.75,-192 204.75,-186 204.75,-186 204.75,-174 204.75,-174 204.75,-168 210.75,-162 216.75,-162 216.75,-162 287.5,-162 287.5,-162 293.5,-162 299.5,-168 299.5,-174 299.5,-174 299.5,-186 299.5,-186 299.5,-192 293.5,-198 287.5,-198"/>
<text xml:space="preserve" text-anchor="middle" x="252.12" y="-174.95" font-family="Times,serif" font-size="14.00">dma_mapping</text>
</g>
<!-- packet_ops&#45;&gt;dma_mapping -->
<g id="edge3" class="edge">
<title>packet_ops&#45;&gt;dma_mapping</title>
<path fill="none" stroke="black" d="M230.77,-491.55C240.73,-477.88 252.12,-457.9 252.12,-438 252.12,-438 252.12,-438 252.12,-274.5 252.12,-252.77 252.12,-228.19 252.12,-209.69"/>
<polygon fill="black" stroke="black" points="255.63,-209.75 252.13,-199.75 248.63,-209.75 255.63,-209.75"/>
</g>
<!-- arp -->
<g id="node8" class="node">
<title>arp</title>
<path fill="lightyellow" stroke="black" d="M610.12,-601C610.12,-601 580.12,-601 580.12,-601 574.12,-601 568.12,-595 568.12,-589 568.12,-589 568.12,-577 568.12,-577 568.12,-571 574.12,-565 580.12,-565 580.12,-565 610.12,-565 610.12,-565 616.12,-565 622.12,-571 622.12,-577 622.12,-577 622.12,-589 622.12,-589 622.12,-595 616.12,-601 610.12,-601"/>
<text xml:space="preserve" text-anchor="middle" x="595.12" y="-577.95" font-family="Times,serif" font-size="14.00">arp</text>
</g>
<!-- routing -->
<g id="node9" class="node">
<title>routing</title>
<path fill="lightyellow" stroke="black" d="M683.62,-601C683.62,-601 652.62,-601 652.62,-601 646.62,-601 640.62,-595 640.62,-589 640.62,-589 640.62,-577 640.62,-577 640.62,-571 646.62,-565 652.62,-565 652.62,-565 683.62,-565 683.62,-565 689.62,-565 695.62,-571 695.62,-577 695.62,-577 695.62,-589 695.62,-589 695.62,-595 689.62,-601 683.62,-601"/>
<text xml:space="preserve" text-anchor="middle" x="668.12" y="-577.95" font-family="Times,serif" font-size="14.00">routing</text>
</g>
<!-- static_routing -->
<g id="node10" class="node">
<title>static_routing</title>
<path fill="lightyellow" stroke="black" d="M792.25,-601C792.25,-601 726,-601 726,-601 720,-601 714,-595 714,-589 714,-589 714,-577 714,-577 714,-571 720,-565 726,-565 726,-565 792.25,-565 792.25,-565 798.25,-565 804.25,-571 804.25,-577 804.25,-577 804.25,-589 804.25,-589 804.25,-595 798.25,-601 792.25,-601"/>
<text xml:space="preserve" text-anchor="middle" x="759.12" y="-577.95" font-family="Times,serif" font-size="14.00">static_routing</text>
</g>
<!-- 3c509b -->
<g id="node14" class="node">
<title>3c509b</title>
<path fill="lightpink" stroke="black" d="M140,-293.5C140,-293.5 108.25,-293.5 108.25,-293.5 102.25,-293.5 96.25,-287.5 96.25,-281.5 96.25,-281.5 96.25,-269.5 96.25,-269.5 96.25,-263.5 102.25,-257.5 108.25,-257.5 108.25,-257.5 140,-257.5 140,-257.5 146,-257.5 152,-263.5 152,-269.5 152,-269.5 152,-281.5 152,-281.5 152,-287.5 146,-293.5 140,-293.5"/>
<text xml:space="preserve" text-anchor="middle" x="124.12" y="-270.45" font-family="Times,serif" font-size="14.00">3c509b</text>
</g>
<!-- hardware&#45;&gt;3c509b -->
<g id="edge8" class="edge">
<title>hardware&#45;&gt;3c509b</title>
<path fill="none" stroke="black" d="M139.28,-330.31C137.1,-322.55 134.46,-313.18 132,-304.45"/>
<polygon fill="black" stroke="black" points="135.41,-303.66 129.33,-294.99 128.67,-305.56 135.41,-303.66"/>
</g>
<!-- 3c515 -->
<g id="node16" class="node">
<title>3c515</title>
<path fill="lightpink" stroke="black" d="M212.12,-293.5C212.12,-293.5 182.12,-293.5 182.12,-293.5 176.12,-293.5 170.12,-287.5 170.12,-281.5 170.12,-281.5 170.12,-269.5 170.12,-269.5 170.12,-263.5 176.12,-257.5 182.12,-257.5 182.12,-257.5 212.12,-257.5 212.12,-257.5 218.12,-257.5 224.12,-263.5 224.12,-269.5 224.12,-269.5 224.12,-281.5 224.12,-281.5 224.12,-287.5 218.12,-293.5 212.12,-293.5"/>
<text xml:space="preserve" text-anchor="middle" x="197.12" y="-270.45" font-family="Times,serif" font-size="14.00">3c515</text>
</g>
<!-- hardware&#45;&gt;3c515 -->
<g id="edge9" class="edge">
<title>hardware&#45;&gt;3c515</title>
<path fill="none" stroke="black" d="M156.95,-330.31C163.14,-322.03 170.69,-311.91 177.57,-302.69"/>
<polygon fill="black" stroke="black" points="180.33,-304.85 183.51,-294.74 174.72,-300.66 180.33,-304.85"/>
</g>
<!-- nic_init -->
<g id="node12" class="node">
<title>nic_init</title>
<path fill="lightcoral" stroke="black" d="M867.75,-601C867.75,-601 834.5,-601 834.5,-601 828.5,-601 822.5,-595 822.5,-589 822.5,-589 822.5,-577 822.5,-577 822.5,-571 828.5,-565 834.5,-565 834.5,-565 867.75,-565 867.75,-565 873.75,-565 879.75,-571 879.75,-577 879.75,-577 879.75,-589 879.75,-589 879.75,-595 873.75,-601 867.75,-601"/>
<text xml:space="preserve" text-anchor="middle" x="851.12" y="-577.95" font-family="Times,serif" font-size="14.00">nic_init</text>
</g>
<!-- nic_capabilities -->
<g id="node13" class="node">
<title>nic_capabilities</title>
<path fill="lightcoral" stroke="black" d="M986.5,-601C986.5,-601 909.75,-601 909.75,-601 903.75,-601 897.75,-595 897.75,-589 897.75,-589 897.75,-577 897.75,-577 897.75,-571 903.75,-565 909.75,-565 909.75,-565 986.5,-565 986.5,-565 992.5,-565 998.5,-571 998.5,-577 998.5,-577 998.5,-589 998.5,-589 998.5,-595 992.5,-601 986.5,-601"/>
<text xml:space="preserve" text-anchor="middle" x="948.12" y="-577.95" font-family="Times,serif" font-size="14.00">nic_capabilities</text>
</g>
<!-- logging -->
<g id="node21" class="node">
<title>logging</title>
<path fill="lightgray" stroke="black" d="M140.75,-198C140.75,-198 107.5,-198 107.5,-198 101.5,-198 95.5,-192 95.5,-186 95.5,-186 95.5,-174 95.5,-174 95.5,-168 101.5,-162 107.5,-162 107.5,-162 140.75,-162 140.75,-162 146.75,-162 152.75,-168 152.75,-174 152.75,-174 152.75,-186 152.75,-186 152.75,-192 146.75,-198 140.75,-198"/>
<text xml:space="preserve" text-anchor="middle" x="124.12" y="-174.95" font-family="Times,serif" font-size="14.00">logging</text>
</g>
<!-- 3c509b&#45;&gt;logging -->
<g id="edge14" class="edge">
<title>3c509b&#45;&gt;logging</title>
<path fill="none" stroke="black" d="M124.12,-257.35C124.12,-243.99 124.12,-225.15 124.12,-209.53"/>
<polygon fill="black" stroke="black" points="127.63,-209.87 124.13,-199.87 120.63,-209.87 127.63,-209.87"/>
</g>
<!-- 3c509b_pio&#45;&gt;hardware -->
<g id="edge11" class="edge">
<title>3c509b_pio&#45;&gt;hardware</title>
<path fill="none" stroke="black" stroke-dasharray="5,2" d="M163.19,-418.81C159.83,-413.32 156.46,-407.09 154.12,-401 151.31,-393.66 149.26,-385.41 147.77,-377.71"/>
<polygon fill="black" stroke="black" points="151.27,-377.4 146.18,-368.1 144.36,-378.54 151.27,-377.4"/>
<text xml:space="preserve" text-anchor="middle" x="196.12" y="-387.7" font-family="Times,serif" font-size="14.00">bypasses DMA</text>
</g>
<!-- 3c515&#45;&gt;dma_mapping -->
<g id="edge10" class="edge">
<title>3c515&#45;&gt;dma_mapping</title>
<path fill="none" stroke="black" d="M207.21,-257.35C215.3,-243.6 226.81,-224.04 236.15,-208.16"/>
<polygon fill="black" stroke="black" points="239.09,-210.06 241.15,-199.66 233.06,-206.51 239.09,-210.06"/>
</g>
<!-- 3c515&#45;&gt;logging -->
<g id="edge15" class="edge">
<title>3c515&#45;&gt;logging</title>
<path fill="none" stroke="black" d="M180.15,-257.05C172.79,-249.17 164.24,-239.61 157.12,-230.5 151.56,-223.37 145.93,-215.32 140.95,-207.82"/>
<polygon fill="black" stroke="black" points="144.03,-206.14 135.64,-199.66 138.16,-209.95 144.03,-206.14"/>
</g>
<!-- 3c515_enhanced -->
<g id="node17" class="node">
<title>3c515_enhanced</title>
<path fill="lightpink" stroke="black" d="M1111.5,-601C1111.5,-601 1028.75,-601 1028.75,-601 1022.75,-601 1016.75,-595 1016.75,-589 1016.75,-589 1016.75,-577 1016.75,-577 1016.75,-571 1022.75,-565 1028.75,-565 1028.75,-565 1111.5,-565 1111.5,-565 1117.5,-565 1123.5,-571 1123.5,-577 1123.5,-577 1123.5,-589 1123.5,-589 1123.5,-595 1117.5,-601 1111.5,-601"/>
<text xml:space="preserve" text-anchor="middle" x="1070.12" y="-577.95" font-family="Times,serif" font-size="14.00">3c515_enhanced</text>
</g>
<!-- dma_boundary -->
<g id="node19" class="node">
<title>dma_boundary</title>
<path fill="lightsalmon" stroke="black" d="M289,-125C289,-125 215.25,-125 215.25,-125 209.25,-125 203.25,-119 203.25,-113 203.25,-113 203.25,-101 203.25,-101 203.25,-95 209.25,-89 215.25,-89 215.25,-89 289,-89 289,-89 295,-89 301,-95 301,-101 301,-101 301,-113 301,-113 301,-119 295,-125 289,-125"/>
<text xml:space="preserve" text-anchor="middle" x="252.12" y="-101.95" font-family="Times,serif" font-size="14.00">dma_boundary</text>
</g>
<!-- dma_mapping&#45;&gt;dma_boundary -->
<g id="edge4" class="edge">
<title>dma_mapping&#45;&gt;dma_boundary</title>
<path fill="none" stroke="black" d="M252.12,-161.81C252.12,-154.23 252.12,-145.1 252.12,-136.54"/>
<polygon fill="black" stroke="black" points="255.63,-136.54 252.13,-126.54 248.63,-136.54 255.63,-136.54"/>
</g>
<!-- cache_coherency_enhanced -->
<g id="node20" class="node">
<title>cache_coherency_enhanced</title>
<path fill="lightsalmon" stroke="black" d="M323.5,-52C323.5,-52 180.75,-52 180.75,-52 174.75,-52 168.75,-46 168.75,-40 168.75,-40 168.75,-28 168.75,-28 168.75,-22 174.75,-16 180.75,-16 180.75,-16 323.5,-16 323.5,-16 329.5,-16 335.5,-22 335.5,-28 335.5,-28 335.5,-40 335.5,-40 335.5,-46 329.5,-52 323.5,-52"/>
<text xml:space="preserve" text-anchor="middle" x="252.12" y="-28.95" font-family="Times,serif" font-size="14.00">cache_coherency_enhanced</text>
</g>
<!-- dma_boundary&#45;&gt;cache_coherency_enhanced -->
<g id="edge5" class="edge">
<title>dma_boundary&#45;&gt;cache_coherency_enhanced</title>
<path fill="none" stroke="black" d="M252.12,-88.81C252.12,-81.23 252.12,-72.1 252.12,-63.54"/>
<polygon fill="black" stroke="black" points="255.63,-63.54 252.13,-53.54 248.63,-63.54 255.63,-63.54"/>
</g>
<!-- xms_detect -->
<g id="node23" class="node">
<title>xms_detect</title>
<path fill="lightgray" stroke="black" d="M66.25,-293.5C66.25,-293.5 12,-293.5 12,-293.5 6,-293.5 0,-287.5 0,-281.5 0,-281.5 0,-269.5 0,-269.5 0,-263.5 6,-257.5 12,-257.5 12,-257.5 66.25,-257.5 66.25,-257.5 72.25,-257.5 78.25,-263.5 78.25,-269.5 78.25,-269.5 78.25,-281.5 78.25,-281.5 78.25,-287.5 72.25,-293.5 66.25,-293.5"/>
<text xml:space="preserve" text-anchor="middle" x="39.12" y="-270.45" font-family="Times,serif" font-size="14.00">xms_detect</text>
</g>
<!-- memory&#45;&gt;xms_detect -->
<g id="edge13" class="edge">
<title>memory&#45;&gt;xms_detect</title>
<path fill="none" stroke="black" d="M44.43,-330.31C43.67,-322.64 42.76,-313.39 41.91,-304.74"/>
<polygon fill="black" stroke="black" points="45.42,-304.64 40.95,-295.04 38.45,-305.33 45.42,-304.64"/>
</g>
</g>
</svg>
