<?xml version="1.0" encoding="UTF-8" standalone="no"?>
<!DOCTYPE svg PUBLIC "-//W3C//DTD SVG 1.1//EN"
 "http://www.w3.org/Graphics/SVG/1.1/DTD/svg11.dtd">
<!-- Generated by graphviz version 13.1.2 (20250808.2320)
 -->
<!-- Title: DependencyMap Pages: 1 -->
<svg width="1800pt" height="757pt"
 viewBox="0.00 0.00 1800.00 757.00" xmlns="http://www.w3.org/2000/svg" xmlns:xlink="http://www.w3.org/1999/xlink">
<g id="graph0" class="graph" transform="scale(1 1) rotate(0) translate(4 752.5)">
<title>DependencyMap</title>
<polygon fill="white" stroke="none" points="-4,4 -4,-752.5 1796.12,-752.5 1796.12,4 -4,4"/>
<g id="clust1" class="cluster">
<title>cluster_pio</title>
<polygon fill="honeydew" stroke="black" points="276.12,-502.5 276.12,-740.5 435.12,-740.5 435.12,-502.5 276.12,-502.5"/>
<text xml:space="preserve" text-anchor="middle" x="355.62" y="-723.2" font-family="Times,serif" font-size="14.00">PIO Fast Path (A+ Grade)</text>
</g>
<g id="clust2" class="cluster">
<title>cluster_dma</title>
<polygon fill="mistyrose" stroke="black" points="1602.12,-8 1602.12,-246 1784.12,-246 1784.12,-8 1602.12,-8"/>
<text xml:space="preserve" text-anchor="middle" x="1693.12" y="-228.7" font-family="Times,serif" font-size="14.00">DMA Path</text>
</g>
<g id="clust3" class="cluster">
<title>cluster_orphaned_critical</title>
<polygon fill="mistyrose" stroke="black" points="1268.12,-169.5 1268.12,-357 1594.12,-357 1594.12,-169.5 1268.12,-169.5"/>
<text xml:space="preserve" text-anchor="middle" x="1431.12" y="-339.7" font-family="Times,serif" font-size="14.00">ORPHANED &#45; CRITICAL (System Stability)</text>
</g>
<g id="clust4" class="cluster">
<title>cluster_orphaned_high</title>
<polygon fill="wheat" stroke="black" points="87.12,-280.5 87.12,-468 789.12,-468 789.12,-280.5 87.12,-280.5"/>
<text xml:space="preserve" text-anchor="middle" x="438.12" y="-450.7" font-family="Times,serif" font-size="14.00">ORPHANED &#45; HIGH Priority (Enterprise Features)</text>
</g>
<g id="clust5" class="cluster">
<title>cluster_orphaned_medium</title>
<polygon fill="lightyellow" stroke="black" points="435.12,-169.5 435.12,-246 1260.12,-246 1260.12,-169.5 435.12,-169.5"/>
<text xml:space="preserve" text-anchor="middle" x="847.62" y="-228.7" font-family="Times,serif" font-size="14.00">ORPHANED &#45; MEDIUM Priority (Optimization)</text>
</g>
<g id="clust6" class="cluster">
<title>cluster_orphaned_low</title>
<polygon fill="lavender" stroke="black" points="951.12,-391.5 951.12,-468 1604.12,-468 1604.12,-391.5 951.12,-391.5"/>
<text xml:space="preserve" text-anchor="middle" x="1277.62" y="-450.7" font-family="Times,serif" font-size="14.00">ORPHANED &#45; LOW Priority (Support/Test)</text>
</g>
<!-- main -->
<g id="node1" class="node">
<title>main</title>
<path fill="lightblue" stroke="black" d="M159.12,-635C159.12,-635 129.12,-635 129.12,-635 123.12,-635 117.12,-629 117.12,-623 117.12,-623 117.12,-611 117.12,-611 117.12,-605 123.12,-599 129.12,-599 129.12,-599 159.12,-599 159.12,-599 165.12,-599 171.12,-605 171.12,-611 171.12,-611 171.12,-623 171.12,-623 171.12,-629 165.12,-635 159.12,-635"/>
<text xml:space="preserve" text-anchor="middle" x="144.12" y="-611.95" font-family="Times,serif" font-size="14.00">main</text>
</g>
<!-- init -->
<g id="node5" class="node">
<title>init</title>
<path fill="lightgreen" stroke="black" d="M159.12,-546.5C159.12,-546.5 129.12,-546.5 129.12,-546.5 123.12,-546.5 117.12,-540.5 117.12,-534.5 117.12,-534.5 117.12,-522.5 117.12,-522.5 117.12,-516.5 123.12,-510.5 129.12,-510.5 129.12,-510.5 159.12,-510.5 159.12,-510.5 165.12,-510.5 171.12,-516.5 171.12,-522.5 171.12,-522.5 171.12,-534.5 171.12,-534.5 171.12,-540.5 165.12,-546.5 159.12,-546.5"/>
<text xml:space="preserve" text-anchor="middle" x="144.12" y="-523.45" font-family="Times,serif" font-size="14.00">init</text>
</g>
<!-- main&#45;&gt;init -->
<g id="edge6" class="edge">
<title>main&#45;&gt;init</title>
<path fill="none" stroke="black" d="M144.12,-598.91C144.12,-587.26 144.12,-571.55 144.12,-558.02"/>
<polygon fill="black" stroke="black" points="147.63,-558.36 144.13,-548.36 140.63,-558.36 147.63,-558.36"/>
</g>
<!-- api -->
<g id="node2" class="node">
<title>api</title>
<path fill="lightblue" stroke="black" d="M331.12,-708C331.12,-708 301.12,-708 301.12,-708 295.12,-708 289.12,-702 289.12,-696 289.12,-696 289.12,-684 289.12,-684 289.12,-678 295.12,-672 301.12,-672 301.12,-672 331.12,-672 331.12,-672 337.12,-672 343.12,-678 343.12,-684 343.12,-684 343.12,-696 343.12,-696 343.12,-702 337.12,-708 331.12,-708"/>
<text xml:space="preserve" text-anchor="middle" x="316.12" y="-684.95" font-family="Times,serif" font-size="14.00">api</text>
</g>
<!-- packet_ops -->
<g id="node7" class="node">
<title>packet_ops</title>
<path fill="lightyellow" stroke="black" d="M358.5,-635C358.5,-635 305.75,-635 305.75,-635 299.75,-635 293.75,-629 293.75,-623 293.75,-623 293.75,-611 293.75,-611 293.75,-605 299.75,-599 305.75,-599 305.75,-599 358.5,-599 358.5,-599 364.5,-599 370.5,-605 370.5,-611 370.5,-611 370.5,-623 370.5,-623 370.5,-629 364.5,-635 358.5,-635"/>
<text xml:space="preserve" text-anchor="middle" x="332.12" y="-611.95" font-family="Times,serif" font-size="14.00">packet_ops</text>
</g>
<!-- api&#45;&gt;packet_ops -->
<g id="edge1" class="edge">
<title>api&#45;&gt;packet_ops</title>
<path fill="none" stroke="black" d="M320,-671.81C321.73,-664.14 323.81,-654.89 325.76,-646.24"/>
<polygon fill="black" stroke="black" points="329.17,-647.03 327.95,-636.51 322.34,-645.49 329.17,-647.03"/>
</g>
<!-- handle_compact -->
<g id="node28" class="node">
<title>handle_compact</title>
<path fill="orange" stroke="black" d="M260.75,-435.5C260.75,-435.5 179.5,-435.5 179.5,-435.5 173.5,-435.5 167.5,-429.5 167.5,-423.5 167.5,-423.5 167.5,-411.5 167.5,-411.5 167.5,-405.5 173.5,-399.5 179.5,-399.5 179.5,-399.5 260.75,-399.5 260.75,-399.5 266.75,-399.5 272.75,-405.5 272.75,-411.5 272.75,-411.5 272.75,-423.5 272.75,-423.5 272.75,-429.5 266.75,-435.5 260.75,-435.5"/>
<text xml:space="preserve" text-anchor="middle" x="220.12" y="-412.45" font-family="Times,serif" font-size="14.00">handle_compact</text>
</g>
<!-- api&#45;&gt;handle_compact -->
<g id="edge21" class="edge">
<title>api&#45;&gt;handle_compact</title>
<path fill="none" stroke="orange" stroke-dasharray="5,2" d="M305.49,-671.8C299.21,-661.35 291.31,-647.62 285.12,-635 253.84,-571.21 234.29,-489.36 225.53,-446.9"/>
<polygon fill="orange" stroke="orange" points="229,-446.37 223.6,-437.26 222.13,-447.75 229,-446.37"/>
<text xml:space="preserve" text-anchor="middle" x="290.31" y="-567.7" font-family="Times,serif" font-size="14.00">MISSING</text>
</g>
<!-- diagnostics -->
<g id="node3" class="node">
<title>diagnostics</title>
<path fill="lightblue" stroke="black" d="M507.5,-708C507.5,-708 454.75,-708 454.75,-708 448.75,-708 442.75,-702 442.75,-696 442.75,-696 442.75,-684 442.75,-684 442.75,-678 448.75,-672 454.75,-672 454.75,-672 507.5,-672 507.5,-672 513.5,-672 519.5,-678 519.5,-684 519.5,-684 519.5,-696 519.5,-696 519.5,-702 513.5,-708 507.5,-708"/>
<text xml:space="preserve" text-anchor="middle" x="481.12" y="-684.95" font-family="Times,serif" font-size="14.00">diagnostics</text>
</g>
<!-- config -->
<g id="node4" class="node">
<title>config</title>
<path fill="lightgreen" stroke="black" d="M137.12,-435.5C137.12,-435.5 107.12,-435.5 107.12,-435.5 101.12,-435.5 95.12,-429.5 95.12,-423.5 95.12,-423.5 95.12,-411.5 95.12,-411.5 95.12,-405.5 101.12,-399.5 107.12,-399.5 107.12,-399.5 137.12,-399.5 137.12,-399.5 143.12,-399.5 149.12,-405.5 149.12,-411.5 149.12,-411.5 149.12,-423.5 149.12,-423.5 149.12,-429.5 143.12,-435.5 137.12,-435.5"/>
<text xml:space="preserve" text-anchor="middle" x="122.12" y="-412.45" font-family="Times,serif" font-size="14.00">config</text>
</g>
<!-- runtime_config -->
<g id="node6" class="node">
<title>runtime_config</title>
<path fill="lightgreen" stroke="black" d="M184.12,-324.5C184.12,-324.5 108.12,-324.5 108.12,-324.5 102.12,-324.5 96.12,-318.5 96.12,-312.5 96.12,-312.5 96.12,-300.5 96.12,-300.5 96.12,-294.5 102.12,-288.5 108.12,-288.5 108.12,-288.5 184.12,-288.5 184.12,-288.5 190.12,-288.5 196.12,-294.5 196.12,-300.5 196.12,-300.5 196.12,-312.5 196.12,-312.5 196.12,-318.5 190.12,-324.5 184.12,-324.5"/>
<text xml:space="preserve" text-anchor="middle" x="146.12" y="-301.45" font-family="Times,serif" font-size="14.00">runtime_config</text>
</g>
<!-- config&#45;&gt;runtime_config -->
<g id="edge20" class="edge">
<title>config&#45;&gt;runtime_config</title>
<path fill="none" stroke="orange" stroke-dasharray="5,2" d="M125.88,-399.47C129.62,-382.45 135.45,-355.99 139.89,-335.81"/>
<polygon fill="orange" stroke="orange" points="143.26,-336.77 142,-326.25 136.43,-335.26 143.26,-336.77"/>
<text xml:space="preserve" text-anchor="middle" x="161.53" y="-368.2" font-family="Times,serif" font-size="14.00">MISSING</text>
</g>
<!-- hardware -->
<g id="node11" class="node">
<title>hardware</title>
<path fill="lightcoral" stroke="black" d="M345.25,-435.5C345.25,-435.5 303,-435.5 303,-435.5 297,-435.5 291,-429.5 291,-423.5 291,-423.5 291,-411.5 291,-411.5 291,-405.5 297,-399.5 303,-399.5 303,-399.5 345.25,-399.5 345.25,-399.5 351.25,-399.5 357.25,-405.5 357.25,-411.5 357.25,-411.5 357.25,-423.5 357.25,-423.5 357.25,-429.5 351.25,-435.5 345.25,-435.5"/>
<text xml:space="preserve" text-anchor="middle" x="324.12" y="-412.45" font-family="Times,serif" font-size="14.00">hardware</text>
</g>
<!-- init&#45;&gt;hardware -->
<g id="edge7" class="edge">
<title>init&#45;&gt;hardware</title>
<path fill="none" stroke="black" d="M171.46,-519.83C200.77,-510.71 247.73,-493.45 282.12,-468 290.81,-461.57 298.89,-453.01 305.59,-444.82"/>
<polygon fill="black" stroke="black" points="308.24,-447.11 311.6,-437.06 302.71,-442.82 308.24,-447.11"/>
</g>
<!-- memory -->
<g id="node22" class="node">
<title>memory</title>
<path fill="lightgray" stroke="black" d="M62.38,-435.5C62.38,-435.5 23.87,-435.5 23.87,-435.5 17.88,-435.5 11.88,-429.5 11.88,-423.5 11.88,-423.5 11.88,-411.5 11.88,-411.5 11.88,-405.5 17.88,-399.5 23.88,-399.5 23.88,-399.5 62.38,-399.5 62.38,-399.5 68.38,-399.5 74.38,-405.5 74.38,-411.5 74.38,-411.5 74.38,-423.5 74.38,-423.5 74.38,-429.5 68.38,-435.5 62.38,-435.5"/>
<text xml:space="preserve" text-anchor="middle" x="43.12" y="-412.45" font-family="Times,serif" font-size="14.00">memory</text>
</g>
<!-- init&#45;&gt;memory -->
<g id="edge12" class="edge">
<title>init&#45;&gt;memory</title>
<path fill="none" stroke="black" d="M125.14,-510.08C112.8,-498.5 96.57,-482.77 83.12,-468 76.46,-460.68 69.56,-452.43 63.41,-444.78"/>
<polygon fill="black" stroke="black" points="66.24,-442.71 57.28,-437.05 60.75,-447.06 66.24,-442.71"/>
</g>
<!-- 3c509b_pio -->
<g id="node15" class="node">
<title>3c509b_pio</title>
<path fill="green" stroke="black" d="M352,-546.5C352,-546.5 296.25,-546.5 296.25,-546.5 290.25,-546.5 284.25,-540.5 284.25,-534.5 284.25,-534.5 284.25,-522.5 284.25,-522.5 284.25,-516.5 290.25,-510.5 296.25,-510.5 296.25,-510.5 352,-510.5 352,-510.5 358,-510.5 364,-516.5 364,-522.5 364,-522.5 364,-534.5 364,-534.5 364,-540.5 358,-546.5 352,-546.5"/>
<text xml:space="preserve" text-anchor="middle" x="324.12" y="-523.45" font-family="Times,serif" font-size="14.00">3c509b_pio</text>
</g>
<!-- packet_ops&#45;&gt;3c509b_pio -->
<g id="edge2" class="edge">
<title>packet_ops&#45;&gt;3c509b_pio</title>
<path fill="none" stroke="black" d="M327.36,-598.69C326.04,-593.09 324.78,-586.82 324.12,-581 323.29,-573.63 323,-565.62 322.99,-558.17"/>
<polygon fill="black" stroke="black" points="326.48,-558.29 323.14,-548.23 319.48,-558.18 326.48,-558.29"/>
</g>
<!-- packet_ops&#45;&gt;3c509b_pio -->
<g id="edge26" class="edge">
<title>packet_ops&#45;&gt;3c509b_pio</title>
<path fill="none" stroke="green" stroke-width="2" d="M330.54,-598.91C329.51,-587.73 328.13,-572.81 326.92,-559.67"/>
<polygon fill="green" stroke="green" stroke-width="2" points="330.41,-559.5 326.01,-549.86 323.44,-560.14 330.41,-559.5"/>
<text xml:space="preserve" text-anchor="middle" x="370.84" y="-567.7" font-family="Times,serif" font-size="14.00">INTEGRATED</text>
</g>
<!-- dma_mapping -->
<g id="node18" class="node">
<title>dma_mapping</title>
<path fill="lightsalmon" stroke="black" d="M1692.5,-213.5C1692.5,-213.5 1621.75,-213.5 1621.75,-213.5 1615.75,-213.5 1609.75,-207.5 1609.75,-201.5 1609.75,-201.5 1609.75,-189.5 1609.75,-189.5 1609.75,-183.5 1615.75,-177.5 1621.75,-177.5 1621.75,-177.5 1692.5,-177.5 1692.5,-177.5 1698.5,-177.5 1704.5,-183.5 1704.5,-189.5 1704.5,-189.5 1704.5,-201.5 1704.5,-201.5 1704.5,-207.5 1698.5,-213.5 1692.5,-213.5"/>
<text xml:space="preserve" text-anchor="middle" x="1657.12" y="-190.45" font-family="Times,serif" font-size="14.00">dma_mapping</text>
</g>
<!-- packet_ops&#45;&gt;dma_mapping -->
<g id="edge3" class="edge">
<title>packet_ops&#45;&gt;dma_mapping</title>
<path fill="none" stroke="black" d="M370.74,-615.53C587.78,-612.63 1646.12,-595.16 1646.12,-529.5 1646.12,-529.5 1646.12,-529.5 1646.12,-305.5 1646.12,-278.06 1649.62,-246.93 1652.67,-224.98"/>
<polygon fill="black" stroke="black" points="1656.1,-225.71 1654.07,-215.31 1649.17,-224.7 1656.1,-225.71"/>
</g>
<!-- arp -->
<g id="node8" class="node">
<title>arp</title>
<path fill="lightyellow" stroke="black" d="M579.12,-708C579.12,-708 549.12,-708 549.12,-708 543.12,-708 537.12,-702 537.12,-696 537.12,-696 537.12,-684 537.12,-684 537.12,-678 543.12,-672 549.12,-672 549.12,-672 579.12,-672 579.12,-672 585.12,-672 591.12,-678 591.12,-684 591.12,-684 591.12,-696 591.12,-696 591.12,-702 585.12,-708 579.12,-708"/>
<text xml:space="preserve" text-anchor="middle" x="564.12" y="-684.95" font-family="Times,serif" font-size="14.00">arp</text>
</g>
<!-- routing -->
<g id="node9" class="node">
<title>routing</title>
<path fill="lightyellow" stroke="black" d="M652.62,-708C652.62,-708 621.62,-708 621.62,-708 615.62,-708 609.62,-702 609.62,-696 609.62,-696 609.62,-684 609.62,-684 609.62,-678 615.62,-672 621.62,-672 621.62,-672 652.62,-672 652.62,-672 658.62,-672 664.62,-678 664.62,-684 664.62,-684 664.62,-696 664.62,-696 664.62,-702 658.62,-708 652.62,-708"/>
<text xml:space="preserve" text-anchor="middle" x="637.12" y="-684.95" font-family="Times,serif" font-size="14.00">routing</text>
</g>
<!-- static_routing -->
<g id="node10" class="node">
<title>static_routing</title>
<path fill="lightyellow" stroke="black" d="M761.25,-708C761.25,-708 695,-708 695,-708 689,-708 683,-702 683,-696 683,-696 683,-684 683,-684 683,-678 689,-672 695,-672 695,-672 761.25,-672 761.25,-672 767.25,-672 773.25,-678 773.25,-684 773.25,-684 773.25,-696 773.25,-696 773.25,-702 767.25,-708 761.25,-708"/>
<text xml:space="preserve" text-anchor="middle" x="728.12" y="-684.95" font-family="Times,serif" font-size="14.00">static_routing</text>
</g>
<!-- 3c509b -->
<g id="node14" class="node">
<title>3c509b</title>
<path fill="lightpink" stroke="black" d="M841,-324.5C841,-324.5 809.25,-324.5 809.25,-324.5 803.25,-324.5 797.25,-318.5 797.25,-312.5 797.25,-312.5 797.25,-300.5 797.25,-300.5 797.25,-294.5 803.25,-288.5 809.25,-288.5 809.25,-288.5 841,-288.5 841,-288.5 847,-288.5 853,-294.5 853,-300.5 853,-300.5 853,-312.5 853,-312.5 853,-318.5 847,-324.5 841,-324.5"/>
<text xml:space="preserve" text-anchor="middle" x="825.12" y="-301.45" font-family="Times,serif" font-size="14.00">3c509b</text>
</g>
<!-- hardware&#45;&gt;3c509b -->
<g id="edge8" class="edge">
<title>hardware&#45;&gt;3c509b</title>
<path fill="none" stroke="black" d="M349.64,-399.2C355.2,-396.15 361.19,-393.36 367.12,-391.5 457.75,-363.1 711.61,-405.74 793.12,-357 801.74,-351.85 808.45,-343.37 813.46,-334.88"/>
<polygon fill="black" stroke="black" points="816.52,-336.57 818.02,-326.08 810.31,-333.34 816.52,-336.57"/>
</g>
<!-- 3c515 -->
<g id="node16" class="node">
<title>3c515</title>
<path fill="lightpink" stroke="black" d="M1318.12,-324.5C1318.12,-324.5 1288.12,-324.5 1288.12,-324.5 1282.12,-324.5 1276.12,-318.5 1276.12,-312.5 1276.12,-312.5 1276.12,-300.5 1276.12,-300.5 1276.12,-294.5 1282.12,-288.5 1288.12,-288.5 1288.12,-288.5 1318.12,-288.5 1318.12,-288.5 1324.12,-288.5 1330.12,-294.5 1330.12,-300.5 1330.12,-300.5 1330.12,-312.5 1330.12,-312.5 1330.12,-318.5 1324.12,-324.5 1318.12,-324.5"/>
<text xml:space="preserve" text-anchor="middle" x="1303.12" y="-301.45" font-family="Times,serif" font-size="14.00">3c515</text>
</g>
<!-- hardware&#45;&gt;3c515 -->
<g id="edge9" class="edge">
<title>hardware&#45;&gt;3c515</title>
<path fill="none" stroke="black" d="M349.09,-399.17C354.78,-396.04 360.97,-393.22 367.12,-391.5 395.81,-383.48 873.37,-382.82 903.12,-381.5 1058.91,-374.6 1111.07,-421.31 1253.12,-357 1264.76,-351.73 1275.24,-342.51 1283.55,-333.44"/>
<polygon fill="black" stroke="black" points="1286.01,-335.95 1289.85,-326.07 1280.69,-331.4 1286.01,-335.95"/>
</g>
<!-- multi_nic_coord -->
<g id="node27" class="node">
<title>multi_nic_coord</title>
<path fill="orange" stroke="black" d="M365.12,-324.5C365.12,-324.5 283.12,-324.5 283.12,-324.5 277.12,-324.5 271.12,-318.5 271.12,-312.5 271.12,-312.5 271.12,-300.5 271.12,-300.5 271.12,-294.5 277.12,-288.5 283.12,-288.5 283.12,-288.5 365.12,-288.5 365.12,-288.5 371.12,-288.5 377.12,-294.5 377.12,-300.5 377.12,-300.5 377.12,-312.5 377.12,-312.5 377.12,-318.5 371.12,-324.5 365.12,-324.5"/>
<text xml:space="preserve" text-anchor="middle" x="324.12" y="-301.45" font-family="Times,serif" font-size="14.00">multi_nic_coord</text>
</g>
<!-- hardware&#45;&gt;multi_nic_coord -->
<g id="edge19" class="edge">
<title>hardware&#45;&gt;multi_nic_coord</title>
<path fill="none" stroke="orange" stroke-dasharray="5,2" d="M324.12,-399.47C324.12,-382.53 324.12,-356.23 324.12,-336.09"/>
<polygon fill="orange" stroke="orange" points="327.63,-336.28 324.13,-326.28 320.63,-336.28 327.63,-336.28"/>
<text xml:space="preserve" text-anchor="middle" x="352.25" y="-368.2" font-family="Times,serif" font-size="14.00">MISSING</text>
</g>
<!-- 3com_boomerang -->
<g id="node33" class="node">
<title>3com_boomerang</title>
<path fill="gold" stroke="black" d="M546.62,-213.5C546.62,-213.5 455.62,-213.5 455.62,-213.5 449.62,-213.5 443.62,-207.5 443.62,-201.5 443.62,-201.5 443.62,-189.5 443.62,-189.5 443.62,-183.5 449.62,-177.5 455.62,-177.5 455.62,-177.5 546.62,-177.5 546.62,-177.5 552.62,-177.5 558.62,-183.5 558.62,-189.5 558.62,-189.5 558.62,-201.5 558.62,-201.5 558.62,-207.5 552.62,-213.5 546.62,-213.5"/>
<text xml:space="preserve" text-anchor="middle" x="501.12" y="-190.45" font-family="Times,serif" font-size="14.00">3com_boomerang</text>
</g>
<!-- hardware&#45;&gt;3com_boomerang -->
<g id="edge23" class="edge">
<title>hardware&#45;&gt;3com_boomerang</title>
<path fill="none" stroke="gold" stroke-dasharray="5,2" d="M349.58,-399.01C355.14,-395.97 361.15,-393.24 367.12,-391.5 420.07,-376.11 825.18,-397.92 862.12,-357 884.91,-331.76 884.72,-305.9 862.12,-280.5 840.26,-255.92 598.71,-258.09 568.12,-246 553.59,-240.25 539.38,-230.53 527.82,-221.22"/>
<polygon fill="gold" stroke="gold" points="530.21,-218.66 520.31,-214.9 525.7,-224.02 530.21,-218.66"/>
<text xml:space="preserve" text-anchor="middle" x="897.14" y="-301.45" font-family="Times,serif" font-size="14.00">extend</text>
</g>
<!-- nic_init -->
<g id="node12" class="node">
<title>nic_init</title>
<path fill="lightcoral" stroke="black" d="M836.75,-708C836.75,-708 803.5,-708 803.5,-708 797.5,-708 791.5,-702 791.5,-696 791.5,-696 791.5,-684 791.5,-684 791.5,-678 797.5,-672 803.5,-672 803.5,-672 836.75,-672 836.75,-672 842.75,-672 848.75,-678 848.75,-684 848.75,-684 848.75,-696 848.75,-696 848.75,-702 842.75,-708 836.75,-708"/>
<text xml:space="preserve" text-anchor="middle" x="820.12" y="-684.95" font-family="Times,serif" font-size="14.00">nic_init</text>
</g>
<!-- nic_capabilities -->
<g id="node13" class="node">
<title>nic_capabilities</title>
<path fill="lightcoral" stroke="black" d="M955.5,-708C955.5,-708 878.75,-708 878.75,-708 872.75,-708 866.75,-702 866.75,-696 866.75,-696 866.75,-684 866.75,-684 866.75,-678 872.75,-672 878.75,-672 878.75,-672 955.5,-672 955.5,-672 961.5,-672 967.5,-678 967.5,-684 967.5,-684 967.5,-696 967.5,-696 967.5,-702 961.5,-708 955.5,-708"/>
<text xml:space="preserve" text-anchor="middle" x="917.12" y="-684.95" font-family="Times,serif" font-size="14.00">nic_capabilities</text>
</g>
<!-- logging -->
<g id="node21" class="node">
<title>logging</title>
<path fill="lightgray" stroke="black" d="M413.75,-213.5C413.75,-213.5 380.5,-213.5 380.5,-213.5 374.5,-213.5 368.5,-207.5 368.5,-201.5 368.5,-201.5 368.5,-189.5 368.5,-189.5 368.5,-183.5 374.5,-177.5 380.5,-177.5 380.5,-177.5 413.75,-177.5 413.75,-177.5 419.75,-177.5 425.75,-183.5 425.75,-189.5 425.75,-189.5 425.75,-201.5 425.75,-201.5 425.75,-207.5 419.75,-213.5 413.75,-213.5"/>
<text xml:space="preserve" text-anchor="middle" x="397.12" y="-190.45" font-family="Times,serif" font-size="14.00">logging</text>
</g>
<!-- 3c509b&#45;&gt;logging -->
<g id="edge14" class="edge">
<title>3c509b&#45;&gt;logging</title>
<path fill="none" stroke="black" d="M806.6,-288.23C802.43,-285.18 797.84,-282.38 793.12,-280.5 642.98,-220.69 570.41,-327.98 431.12,-246 422.21,-240.75 415.1,-232.14 409.74,-223.56"/>
<polygon fill="black" stroke="black" points="412.9,-222.05 404.97,-215.03 406.79,-225.46 412.9,-222.05"/>
</g>
<!-- 3c509b_pio&#45;&gt;hardware -->
<g id="edge11" class="edge">
<title>3c509b_pio&#45;&gt;hardware</title>
<path fill="none" stroke="black" stroke-dasharray="5,2" d="M324.12,-510.47C324.12,-493.53 324.12,-467.23 324.12,-447.09"/>
<polygon fill="black" stroke="black" points="327.63,-447.28 324.13,-437.28 320.63,-447.28 327.63,-447.28"/>
<text xml:space="preserve" text-anchor="middle" x="366.12" y="-479.2" font-family="Times,serif" font-size="14.00">bypasses DMA</text>
</g>
<!-- 3c515_enhanced -->
<g id="node17" class="node">
<title>3c515_enhanced</title>
<path fill="lightpink" stroke="black" d="M862.5,-213.5C862.5,-213.5 779.75,-213.5 779.75,-213.5 773.75,-213.5 767.75,-207.5 767.75,-201.5 767.75,-201.5 767.75,-189.5 767.75,-189.5 767.75,-183.5 773.75,-177.5 779.75,-177.5 779.75,-177.5 862.5,-177.5 862.5,-177.5 868.5,-177.5 874.5,-183.5 874.5,-189.5 874.5,-189.5 874.5,-201.5 874.5,-201.5 874.5,-207.5 868.5,-213.5 862.5,-213.5"/>
<text xml:space="preserve" text-anchor="middle" x="821.12" y="-190.45" font-family="Times,serif" font-size="14.00">3c515_enhanced</text>
</g>
<!-- 3c515&#45;&gt;3c515_enhanced -->
<g id="edge22" class="edge">
<title>3c515&#45;&gt;3c515_enhanced</title>
<path fill="none" stroke="gold" stroke-dasharray="5,2" d="M1275.83,-289.61C1268.65,-286.06 1260.77,-282.71 1253.12,-280.5 1137.7,-247.19 1103.78,-264.68 984.12,-254 961.92,-252.02 904.89,-254.12 884.12,-246 870.16,-240.54 856.78,-230.9 845.98,-221.56"/>
<polygon fill="gold" stroke="gold" points="848.42,-219.06 838.67,-214.92 843.71,-224.23 848.42,-219.06"/>
<text xml:space="preserve" text-anchor="middle" x="1231.11" y="-257.2" font-family="Times,serif" font-size="14.00">enhance</text>
</g>
<!-- 3c515&#45;&gt;dma_mapping -->
<g id="edge10" class="edge">
<title>3c515&#45;&gt;dma_mapping</title>
<path fill="none" stroke="black" d="M1324.66,-288.13C1329.22,-285.17 1334.16,-282.42 1339.12,-280.5 1366.2,-270.01 1571.56,-257.71 1598.12,-246 1611.18,-240.24 1623.61,-230.68 1633.66,-221.49"/>
<polygon fill="black" stroke="black" points="1635.97,-224.12 1640.75,-214.66 1631.12,-219.08 1635.97,-224.12"/>
</g>
<!-- cache_coherency_enhanced -->
<g id="node20" class="node">
<title>cache_coherency_enhanced</title>
<path fill="lightsalmon" stroke="black" d="M1764.5,-52C1764.5,-52 1621.75,-52 1621.75,-52 1615.75,-52 1609.75,-46 1609.75,-40 1609.75,-40 1609.75,-28 1609.75,-28 1609.75,-22 1615.75,-16 1621.75,-16 1621.75,-16 1764.5,-16 1764.5,-16 1770.5,-16 1776.5,-22 1776.5,-28 1776.5,-28 1776.5,-40 1776.5,-40 1776.5,-46 1770.5,-52 1764.5,-52"/>
<text xml:space="preserve" text-anchor="middle" x="1693.12" y="-28.95" font-family="Times,serif" font-size="14.00">cache_coherency_enhanced</text>
</g>
<!-- 3c515&#45;&gt;cache_coherency_enhanced -->
<g id="edge18" class="edge">
<title>3c515&#45;&gt;cache_coherency_enhanced</title>
<path fill="none" stroke="red" stroke-dasharray="5,2" d="M1300.5,-288.27C1297.23,-260.11 1295.07,-203.9 1323.12,-169.5 1390.4,-86.99 1512.78,-55.1 1598.3,-42.77"/>
<polygon fill="red" stroke="red" points="1598.66,-46.25 1608.09,-41.43 1597.71,-39.31 1598.66,-46.25"/>
<text xml:space="preserve" text-anchor="middle" x="1376.22" y="-146.2" font-family="Times,serif" font-size="14.00">MISSING</text>
</g>
<!-- 3c515&#45;&gt;logging -->
<g id="edge15" class="edge">
<title>3c515&#45;&gt;logging</title>
<path fill="none" stroke="black" d="M1275.65,-289.16C1268.54,-285.67 1260.74,-282.45 1253.12,-280.5 1195.17,-265.68 1043.89,-272.95 984.12,-270.5 820.99,-263.8 780.24,-261.17 617.12,-254 596.46,-253.09 449.22,-256.03 431.12,-246 422.08,-240.99 414.94,-232.43 409.59,-223.82"/>
<polygon fill="black" stroke="black" points="412.74,-222.3 404.85,-215.24 406.61,-225.68 412.74,-222.3"/>
</g>
<!-- dma_safety -->
<g id="node24" class="node">
<title>dma_safety</title>
<path fill="red" stroke="black" d="M1398.62,-213.5C1398.62,-213.5 1343.62,-213.5 1343.62,-213.5 1337.62,-213.5 1331.62,-207.5 1331.62,-201.5 1331.62,-201.5 1331.62,-189.5 1331.62,-189.5 1331.62,-183.5 1337.62,-177.5 1343.62,-177.5 1343.62,-177.5 1398.62,-177.5 1398.62,-177.5 1404.62,-177.5 1410.62,-183.5 1410.62,-189.5 1410.62,-189.5 1410.62,-201.5 1410.62,-201.5 1410.62,-207.5 1404.62,-213.5 1398.62,-213.5"/>
<text xml:space="preserve" text-anchor="middle" x="1371.12" y="-190.45" font-family="Times,serif" font-size="14.00">dma_safety</text>
</g>
<!-- 3c515&#45;&gt;dma_safety -->
<g id="edge16" class="edge">
<title>3c515&#45;&gt;dma_safety</title>
<path fill="none" stroke="red" stroke-dasharray="5,2" d="M1313.75,-288.47C1324.61,-271.05 1341.65,-243.74 1354.34,-223.4"/>
<polygon fill="red" stroke="red" points="1357.23,-225.39 1359.55,-215.06 1351.29,-221.69 1357.23,-225.39"/>
<text xml:space="preserve" text-anchor="middle" x="1363.21" y="-257.2" font-family="Times,serif" font-size="14.00">MISSING</text>
</g>
<!-- dma_boundary -->
<g id="node19" class="node">
<title>dma_boundary</title>
<path fill="lightsalmon" stroke="black" d="M1696,-125C1696,-125 1622.25,-125 1622.25,-125 1616.25,-125 1610.25,-119 1610.25,-113 1610.25,-113 1610.25,-101 1610.25,-101 1610.25,-95 1616.25,-89 1622.25,-89 1622.25,-89 1696,-89 1696,-89 1702,-89 1708,-95 1708,-101 1708,-101 1708,-113 1708,-113 1708,-119 1702,-125 1696,-125"/>
<text xml:space="preserve" text-anchor="middle" x="1659.12" y="-101.95" font-family="Times,serif" font-size="14.00">dma_boundary</text>
</g>
<!-- dma_mapping&#45;&gt;dma_boundary -->
<g id="edge4" class="edge">
<title>dma_mapping&#45;&gt;dma_boundary</title>
<path fill="none" stroke="black" d="M1657.52,-177.41C1657.79,-165.76 1658.15,-150.05 1658.47,-136.52"/>
<polygon fill="black" stroke="black" points="1661.96,-136.94 1658.69,-126.86 1654.96,-136.78 1661.96,-136.94"/>
</g>
<!-- dma_boundary&#45;&gt;cache_coherency_enhanced -->
<g id="edge5" class="edge">
<title>dma_boundary&#45;&gt;cache_coherency_enhanced</title>
<path fill="none" stroke="black" d="M1667.36,-88.81C1671.16,-80.88 1675.76,-71.26 1680.02,-62.36"/>
<polygon fill="black" stroke="black" points="1683.15,-63.92 1684.32,-53.39 1676.84,-60.9 1683.15,-63.92"/>
</g>
<!-- xms_detect -->
<g id="node23" class="node">
<title>xms_detect</title>
<path fill="lightgray" stroke="black" d="M66.25,-324.5C66.25,-324.5 12,-324.5 12,-324.5 6,-324.5 0,-318.5 0,-312.5 0,-312.5 0,-300.5 0,-300.5 0,-294.5 6,-288.5 12,-288.5 12,-288.5 66.25,-288.5 66.25,-288.5 72.25,-288.5 78.25,-294.5 78.25,-300.5 78.25,-300.5 78.25,-312.5 78.25,-312.5 78.25,-318.5 72.25,-324.5 66.25,-324.5"/>
<text xml:space="preserve" text-anchor="middle" x="39.12" y="-301.45" font-family="Times,serif" font-size="14.00">xms_detect</text>
</g>
<!-- memory&#45;&gt;xms_detect -->
<g id="edge13" class="edge">
<title>memory&#45;&gt;xms_detect</title>
<path fill="none" stroke="black" d="M42.5,-399.47C41.88,-382.53 40.91,-356.23 40.17,-336.09"/>
<polygon fill="black" stroke="black" points="43.68,-336.15 39.81,-326.28 36.68,-336.41 43.68,-336.15"/>
</g>
<!-- dma_safety&#45;&gt;dma_boundary -->
<g id="edge17" class="edge">
<title>dma_safety&#45;&gt;dma_boundary</title>
<path fill="none" stroke="red" stroke-dasharray="5,2" d="M1410.87,-182.56C1459.62,-167.92 1542.73,-142.96 1599.24,-125.99"/>
<polygon fill="red" stroke="red" points="1600.15,-129.37 1608.72,-123.14 1598.13,-122.66 1600.15,-129.37"/>
</g>
<!-- cache_management -->
<g id="node25" class="node">
<title>cache_management</title>
<path fill="red" stroke="black" d="M1460.12,-324.5C1460.12,-324.5 1360.12,-324.5 1360.12,-324.5 1354.12,-324.5 1348.12,-318.5 1348.12,-312.5 1348.12,-312.5 1348.12,-300.5 1348.12,-300.5 1348.12,-294.5 1354.12,-288.5 1360.12,-288.5 1360.12,-288.5 1460.12,-288.5 1460.12,-288.5 1466.12,-288.5 1472.12,-294.5 1472.12,-300.5 1472.12,-300.5 1472.12,-312.5 1472.12,-312.5 1472.12,-318.5 1466.12,-324.5 1460.12,-324.5"/>
<text xml:space="preserve" text-anchor="middle" x="1410.12" y="-301.45" font-family="Times,serif" font-size="14.00">cache_management</text>
</g>
<!-- error_recovery -->
<g id="node26" class="node">
<title>error_recovery</title>
<path fill="red" stroke="black" d="M1574.25,-324.5C1574.25,-324.5 1502,-324.5 1502,-324.5 1496,-324.5 1490,-318.5 1490,-312.5 1490,-312.5 1490,-300.5 1490,-300.5 1490,-294.5 1496,-288.5 1502,-288.5 1502,-288.5 1574.25,-288.5 1574.25,-288.5 1580.25,-288.5 1586.25,-294.5 1586.25,-300.5 1586.25,-300.5 1586.25,-312.5 1586.25,-312.5 1586.25,-318.5 1580.25,-324.5 1574.25,-324.5"/>
<text xml:space="preserve" text-anchor="middle" x="1538.12" y="-301.45" font-family="Times,serif" font-size="14.00">error_recovery</text>
</g>
<!-- xms_buffer_migration -->
<g id="node29" class="node">
<title>xms_buffer_migration</title>
<path fill="orange" stroke="black" d="M502.62,-435.5C502.62,-435.5 387.62,-435.5 387.62,-435.5 381.62,-435.5 375.62,-429.5 375.62,-423.5 375.62,-423.5 375.62,-411.5 375.62,-411.5 375.62,-405.5 381.62,-399.5 387.62,-399.5 387.62,-399.5 502.62,-399.5 502.62,-399.5 508.62,-399.5 514.62,-405.5 514.62,-411.5 514.62,-411.5 514.62,-423.5 514.62,-423.5 514.62,-429.5 508.62,-435.5 502.62,-435.5"/>
<text xml:space="preserve" text-anchor="middle" x="445.12" y="-412.45" font-family="Times,serif" font-size="14.00">xms_buffer_migration</text>
</g>
<!-- performance_monitor -->
<g id="node30" class="node">
<title>performance_monitor</title>
<path fill="orange" stroke="black" d="M655.75,-435.5C655.75,-435.5 544.5,-435.5 544.5,-435.5 538.5,-435.5 532.5,-429.5 532.5,-423.5 532.5,-423.5 532.5,-411.5 532.5,-411.5 532.5,-405.5 538.5,-399.5 544.5,-399.5 544.5,-399.5 655.75,-399.5 655.75,-399.5 661.75,-399.5 667.75,-405.5 667.75,-411.5 667.75,-411.5 667.75,-423.5 667.75,-423.5 667.75,-429.5 661.75,-435.5 655.75,-435.5"/>
<text xml:space="preserve" text-anchor="middle" x="600.12" y="-412.45" font-family="Times,serif" font-size="14.00">performance_monitor</text>
</g>
<!-- deferred_work -->
<g id="node31" class="node">
<title>deferred_work</title>
<path fill="orange" stroke="black" d="M768.88,-435.5C768.88,-435.5 697.38,-435.5 697.38,-435.5 691.38,-435.5 685.38,-429.5 685.38,-423.5 685.38,-423.5 685.38,-411.5 685.38,-411.5 685.38,-405.5 691.38,-399.5 697.38,-399.5 697.38,-399.5 768.88,-399.5 768.88,-399.5 774.88,-399.5 780.88,-405.5 780.88,-411.5 780.88,-411.5 780.88,-423.5 780.88,-423.5 780.88,-429.5 774.88,-435.5 768.88,-435.5"/>
<text xml:space="preserve" text-anchor="middle" x="733.12" y="-412.45" font-family="Times,serif" font-size="14.00">deferred_work</text>
</g>
<!-- enhanced_ring_management -->
<g id="node32" class="node">
<title>enhanced_ring_management</title>
<path fill="gold" stroke="black" d="M737.5,-213.5C737.5,-213.5 588.75,-213.5 588.75,-213.5 582.75,-213.5 576.75,-207.5 576.75,-201.5 576.75,-201.5 576.75,-189.5 576.75,-189.5 576.75,-183.5 582.75,-177.5 588.75,-177.5 588.75,-177.5 737.5,-177.5 737.5,-177.5 743.5,-177.5 749.5,-183.5 749.5,-189.5 749.5,-189.5 749.5,-201.5 749.5,-201.5 749.5,-207.5 743.5,-213.5 737.5,-213.5"/>
<text xml:space="preserve" text-anchor="middle" x="663.12" y="-190.45" font-family="Times,serif" font-size="14.00">enhanced_ring_management</text>
</g>
<!-- 3com_performance -->
<g id="node34" class="node">
<title>3com_performance</title>
<path fill="gold" stroke="black" d="M1003.38,-213.5C1003.38,-213.5 904.88,-213.5 904.88,-213.5 898.88,-213.5 892.88,-207.5 892.88,-201.5 892.88,-201.5 892.88,-189.5 892.88,-189.5 892.88,-183.5 898.88,-177.5 904.88,-177.5 904.88,-177.5 1003.38,-177.5 1003.38,-177.5 1009.38,-177.5 1015.38,-183.5 1015.38,-189.5 1015.38,-189.5 1015.38,-201.5 1015.38,-201.5 1015.38,-207.5 1009.38,-213.5 1003.38,-213.5"/>
<text xml:space="preserve" text-anchor="middle" x="954.12" y="-190.45" font-family="Times,serif" font-size="14.00">3com_performance</text>
</g>
<!-- 3com_power -->
<g id="node35" class="node">
<title>3com_power</title>
<path fill="gold" stroke="black" d="M1108.75,-213.5C1108.75,-213.5 1045.5,-213.5 1045.5,-213.5 1039.5,-213.5 1033.5,-207.5 1033.5,-201.5 1033.5,-201.5 1033.5,-189.5 1033.5,-189.5 1033.5,-183.5 1039.5,-177.5 1045.5,-177.5 1045.5,-177.5 1108.75,-177.5 1108.75,-177.5 1114.75,-177.5 1120.75,-183.5 1120.75,-189.5 1120.75,-189.5 1120.75,-201.5 1120.75,-201.5 1120.75,-207.5 1114.75,-213.5 1108.75,-213.5"/>
<text xml:space="preserve" text-anchor="middle" x="1077.12" y="-190.45" font-family="Times,serif" font-size="14.00">3com_power</text>
</g>
<!-- buffer_autoconfig -->
<g id="node36" class="node">
<title>buffer_autoconfig</title>
<path fill="gold" stroke="black" d="M1239.88,-213.5C1239.88,-213.5 1150.38,-213.5 1150.38,-213.5 1144.38,-213.5 1138.38,-207.5 1138.38,-201.5 1138.38,-201.5 1138.38,-189.5 1138.38,-189.5 1138.38,-183.5 1144.38,-177.5 1150.38,-177.5 1150.38,-177.5 1239.88,-177.5 1239.88,-177.5 1245.88,-177.5 1251.88,-183.5 1251.88,-189.5 1251.88,-189.5 1251.88,-201.5 1251.88,-201.5 1251.88,-207.5 1245.88,-213.5 1239.88,-213.5"/>
<text xml:space="preserve" text-anchor="middle" x="1195.12" y="-190.45" font-family="Times,serif" font-size="14.00">buffer_autoconfig</text>
</g>
<!-- ansi_demo -->
<g id="node37" class="node">
<title>ansi_demo</title>
<path fill="lightblue" stroke="black" d="M1022.75,-435.5C1022.75,-435.5 971.5,-435.5 971.5,-435.5 965.5,-435.5 959.5,-429.5 959.5,-423.5 959.5,-423.5 959.5,-411.5 959.5,-411.5 959.5,-405.5 965.5,-399.5 971.5,-399.5 971.5,-399.5 1022.75,-399.5 1022.75,-399.5 1028.75,-399.5 1034.75,-405.5 1034.75,-411.5 1034.75,-411.5 1034.75,-423.5 1034.75,-423.5 1034.75,-429.5 1028.75,-435.5 1022.75,-435.5"/>
<text xml:space="preserve" text-anchor="middle" x="997.12" y="-412.45" font-family="Times,serif" font-size="14.00">ansi_demo</text>
</g>
<!-- console -->
<g id="node38" class="node">
<title>console</title>
<path fill="lightblue" stroke="black" d="M1097.75,-435.5C1097.75,-435.5 1064.5,-435.5 1064.5,-435.5 1058.5,-435.5 1052.5,-429.5 1052.5,-423.5 1052.5,-423.5 1052.5,-411.5 1052.5,-411.5 1052.5,-405.5 1058.5,-399.5 1064.5,-399.5 1064.5,-399.5 1097.75,-399.5 1097.75,-399.5 1103.75,-399.5 1109.75,-405.5 1109.75,-411.5 1109.75,-411.5 1109.75,-423.5 1109.75,-423.5 1109.75,-429.5 1103.75,-435.5 1097.75,-435.5"/>
<text xml:space="preserve" text-anchor="middle" x="1081.12" y="-412.45" font-family="Times,serif" font-size="14.00">console</text>
</g>
<!-- busmaster_test -->
<g id="node39" class="node">
<title>busmaster_test</title>
<path fill="lightblue" stroke="black" d="M1351.62,-435.5C1351.62,-435.5 1278.62,-435.5 1278.62,-435.5 1272.62,-435.5 1266.62,-429.5 1266.62,-423.5 1266.62,-423.5 1266.62,-411.5 1266.62,-411.5 1266.62,-405.5 1272.62,-399.5 1278.62,-399.5 1278.62,-399.5 1351.62,-399.5 1351.62,-399.5 1357.62,-399.5 1363.62,-405.5 1363.62,-411.5 1363.62,-411.5 1363.62,-423.5 1363.62,-423.5 1363.62,-429.5 1357.62,-435.5 1351.62,-435.5"/>
<text xml:space="preserve" text-anchor="middle" x="1315.12" y="-412.45" font-family="Times,serif" font-size="14.00">busmaster_test</text>
</g>
<!-- busmaster_test&#45;&gt;3c515 -->
<g id="edge24" class="edge">
<title>busmaster_test&#45;&gt;3c515</title>
<path fill="none" stroke="blue" stroke-dasharray="1,5" d="M1313.25,-399.47C1311.39,-382.53 1308.49,-356.23 1306.27,-336.09"/>
<polygon fill="blue" stroke="blue" points="1309.77,-335.83 1305.19,-326.28 1302.81,-336.6 1309.77,-335.83"/>
<text xml:space="preserve" text-anchor="middle" x="1320.62" y="-368.2" font-family="Times,serif" font-size="14.00">test</text>
</g>
<!-- dma_mapping_test -->
<g id="node40" class="node">
<title>dma_mapping_test</title>
<path fill="lightblue" stroke="black" d="M1236.25,-435.5C1236.25,-435.5 1140,-435.5 1140,-435.5 1134,-435.5 1128,-429.5 1128,-423.5 1128,-423.5 1128,-411.5 1128,-411.5 1128,-405.5 1134,-399.5 1140,-399.5 1140,-399.5 1236.25,-399.5 1236.25,-399.5 1242.25,-399.5 1248.25,-405.5 1248.25,-411.5 1248.25,-411.5 1248.25,-423.5 1248.25,-423.5 1248.25,-429.5 1242.25,-435.5 1236.25,-435.5"/>
<text xml:space="preserve" text-anchor="middle" x="1188.12" y="-412.45" font-family="Times,serif" font-size="14.00">dma_mapping_test</text>
</g>
<!-- dma_mapping_test&#45;&gt;dma_safety -->
<g id="edge25" class="edge">
<title>dma_mapping_test&#45;&gt;dma_safety</title>
<path fill="none" stroke="blue" stroke-dasharray="1,5" d="M1192.41,-399.39C1199.96,-371.9 1217.82,-317.23 1248.38,-280.5 1269.51,-255.09 1300.2,-234.09 1325.61,-219.44"/>
<polygon fill="blue" stroke="blue" points="1327.08,-222.63 1334.09,-214.69 1323.66,-216.52 1327.08,-222.63"/>
<text xml:space="preserve" text-anchor="middle" x="1257.75" y="-301.45" font-family="Times,serif" font-size="14.00">test</text>
</g>
<!-- cpu_database -->
<g id="node41" class="node">
<title>cpu_database</title>
<path fill="lightblue" stroke="black" d="M1458.5,-435.5C1458.5,-435.5 1393.75,-435.5 1393.75,-435.5 1387.75,-435.5 1381.75,-429.5 1381.75,-423.5 1381.75,-423.5 1381.75,-411.5 1381.75,-411.5 1381.75,-405.5 1387.75,-399.5 1393.75,-399.5 1393.75,-399.5 1458.5,-399.5 1458.5,-399.5 1464.5,-399.5 1470.5,-405.5 1470.5,-411.5 1470.5,-411.5 1470.5,-423.5 1470.5,-423.5 1470.5,-429.5 1464.5,-435.5 1458.5,-435.5"/>
<text xml:space="preserve" text-anchor="middle" x="1426.12" y="-412.45" font-family="Times,serif" font-size="14.00">cpu_database</text>
</g>
<!-- chipset_database -->
<g id="node42" class="node">
<title>chipset_database</title>
<path fill="lightblue" stroke="black" d="M1583.88,-435.5C1583.88,-435.5 1500.38,-435.5 1500.38,-435.5 1494.38,-435.5 1488.38,-429.5 1488.38,-423.5 1488.38,-423.5 1488.38,-411.5 1488.38,-411.5 1488.38,-405.5 1494.38,-399.5 1500.38,-399.5 1500.38,-399.5 1583.88,-399.5 1583.88,-399.5 1589.88,-399.5 1595.88,-405.5 1595.88,-411.5 1595.88,-411.5 1595.88,-423.5 1595.88,-423.5 1595.88,-429.5 1589.88,-435.5 1583.88,-435.5"/>
<text xml:space="preserve" text-anchor="middle" x="1542.12" y="-412.45" font-family="Times,serif" font-size="14.00">chipset_database</text>
</g>
</g>
</svg>
