<?xml version="1.0" encoding="UTF-8" standalone="no"?>
<!DOCTYPE svg PUBLIC "-//W3C//DTD SVG 1.1//EN"
 "http://www.w3.org/Graphics/SVG/1.1/DTD/svg11.dtd">
<!-- Generated by graphviz version 13.1.2 (20250808.2320)
 -->
<!-- Title: 3Com Packet Driver Dependencies Pages: 1 -->
<svg width="1871pt" height="528pt"
 viewBox="0.00 0.00 1871.00 528.00" xmlns="http://www.w3.org/2000/svg" xmlns:xlink="http://www.w3.org/1999/xlink">
<g id="graph0" class="graph" transform="scale(1 1) rotate(0) translate(4 523.75)">
<title>3Com Packet Driver Dependencies</title>
<polygon fill="white" stroke="none" points="-4,4 -4,-523.75 1867,-523.75 1867,4 -4,4"/>
<text xml:space="preserve" text-anchor="middle" x="931.5" y="-504.35" font-family="Arial" font-size="12.00">3Com DOS Packet Driver v1.0.0 &#45; Active Code Dependencies</text>
<text xml:space="preserve" text-anchor="middle" x="931.5" y="-490.1" font-family="Arial" font-size="12.00">(Green=Active, Red=Dead Code, Yellow=Test/Demo)</text>
<g id="clust1" class="cluster">
<title>cluster_core</title>
<polygon fill="lightgreen" stroke="black" points="130,-244.5 130,-475.25 298,-475.25 298,-244.5 130,-244.5"/>
<text xml:space="preserve" text-anchor="middle" x="214" y="-459.85" font-family="Arial" font-size="12.00">Core Driver (Active)</text>
</g>
<g id="clust2" class="cluster">
<title>cluster_nic</title>
<polygon fill="lightgreen" stroke="black" points="8,-80 8,-236.5 298,-236.5 298,-80 8,-80"/>
<text xml:space="preserve" text-anchor="middle" x="153" y="-221.1" font-family="Arial" font-size="12.00">NIC Support (Active)</text>
</g>
<g id="clust3" class="cluster">
<title>cluster_memory</title>
<polygon fill="lightgreen" stroke="black" points="413,-8 413,-154.25 597,-154.25 597,-8 413,-8"/>
<text xml:space="preserve" text-anchor="middle" x="505" y="-138.85" font-family="Arial" font-size="12.00">Memory Management (Active)</text>
</g>
<g id="clust4" class="cluster">
<title>cluster_network</title>
<polygon fill="lightgreen" stroke="black" points="678,-162.25 678,-393 869,-393 869,-162.25 678,-162.25"/>
<text xml:space="preserve" text-anchor="middle" x="773.5" y="-377.6" font-family="Arial" font-size="12.00">Network Operations (Active)</text>
</g>
<g id="clust5" class="cluster">
<title>cluster_smc</title>
<polygon fill="lightgreen" stroke="black" points="306,-162.25 306,-318.75 640,-318.75 640,-162.25 306,-162.25"/>
<text xml:space="preserve" text-anchor="middle" x="473" y="-303.35" font-family="Arial" font-size="12.00">SMC Optimization (Active)</text>
</g>
<g id="clust6" class="cluster">
<title>cluster_pci</title>
<polygon fill="lightcoral" stroke="black" points="306,-401 306,-475.25 842,-475.25 842,-401 306,-401"/>
<text xml:space="preserve" text-anchor="middle" x="574" y="-459.85" font-family="Arial" font-size="12.00">PCI Support (DEAD CODE)</text>
</g>
<g id="clust7" class="cluster">
<title>cluster_test</title>
<polygon fill="lightyellow" stroke="black" points="850,-401 850,-475.25 1152,-475.25 1152,-401 850,-401"/>
<text xml:space="preserve" text-anchor="middle" x="1001" y="-459.85" font-family="Arial" font-size="12.00">Test/Demo (DEAD CODE)</text>
</g>
<g id="clust8" class="cluster">
<title>cluster_unused</title>
<polygon fill="lightcoral" stroke="black" points="1160,-401 1160,-475.25 1598,-475.25 1598,-401 1160,-401"/>
<text xml:space="preserve" text-anchor="middle" x="1379" y="-459.85" font-family="Arial" font-size="12.00">Unused Features (DEAD CODE)</text>
</g>
<g id="clust9" class="cluster">
<title>cluster_legend</title>
<polygon fill="white" stroke="black" points="1606,-401 1606,-475.25 1855,-475.25 1855,-401 1606,-401"/>
<text xml:space="preserve" text-anchor="middle" x="1730.5" y="-459.85" font-family="Arial" font-size="12.00">Legend</text>
</g>
<!-- tsr_loader.asm -->
<g id="node1" class="node">
<title>tsr_loader.asm</title>
<polygon fill="darkgreen" stroke="black" points="218.25,-445 137.75,-445 137.75,-409 218.25,-409 218.25,-445"/>
<text xml:space="preserve" text-anchor="middle" x="178" y="-423.5" font-family="Arial" font-size="10.00" fill="white">tsr_loader.asm</text>
</g>
<!-- init.c -->
<g id="node2" class="node">
<title>init.c</title>
<polygon fill="green" stroke="black" points="237,-362.75 183,-362.75 183,-326.75 237,-326.75 237,-362.75"/>
<text xml:space="preserve" text-anchor="middle" x="210" y="-341.25" font-family="Arial" font-size="10.00" fill="white">init.c</text>
</g>
<!-- tsr_loader.asm&#45;&gt;init.c -->
<g id="edge1" class="edge">
<title>tsr_loader.asm&#45;&gt;init.c</title>
<path fill="none" stroke="darkgreen" stroke-width="2" d="M184.94,-408.59C188.84,-398.81 193.81,-386.34 198.3,-375.1"/>
<polygon fill="darkgreen" stroke="darkgreen" stroke-width="2" points="201.5,-376.53 201.95,-365.94 194.99,-373.93 201.5,-376.53"/>
</g>
<!-- config.c -->
<g id="node3" class="node">
<title>config.c</title>
<polygon fill="green" stroke="black" points="192,-288.5 138,-288.5 138,-252.5 192,-252.5 192,-288.5"/>
<text xml:space="preserve" text-anchor="middle" x="165" y="-267" font-family="Arial" font-size="10.00" fill="white">config.c</text>
</g>
<!-- init.c&#45;&gt;config.c -->
<g id="edge2" class="edge">
<title>init.c&#45;&gt;config.c</title>
<path fill="none" stroke="darkgreen" stroke-width="2" d="M199.11,-326.26C194.13,-318.27 188.11,-308.61 182.53,-299.64"/>
<polygon fill="darkgreen" stroke="darkgreen" stroke-width="2" points="185.65,-298.04 177.39,-291.4 179.71,-301.74 185.65,-298.04"/>
</g>
<!-- hardware.c -->
<g id="node5" class="node">
<title>hardware.c</title>
<polygon fill="green" stroke="black" points="274,-288.5 210,-288.5 210,-252.5 274,-252.5 274,-288.5"/>
<text xml:space="preserve" text-anchor="middle" x="242" y="-267" font-family="Arial" font-size="10.00" fill="white">hardware.c</text>
</g>
<!-- init.c&#45;&gt;hardware.c -->
<g id="edge3" class="edge">
<title>init.c&#45;&gt;hardware.c</title>
<path fill="none" stroke="darkgreen" stroke-width="2" d="M217.75,-326.26C221.17,-318.54 225.28,-309.25 229.14,-300.54"/>
<polygon fill="darkgreen" stroke="darkgreen" stroke-width="2" points="232.25,-302.16 233.1,-291.6 225.85,-299.32 232.25,-302.16"/>
</g>
<!-- nic_init.c -->
<g id="node8" class="node">
<title>nic_init.c</title>
<polygon fill="green" stroke="black" points="71.5,-206.25 16.5,-206.25 16.5,-170.25 71.5,-170.25 71.5,-206.25"/>
<text xml:space="preserve" text-anchor="middle" x="44" y="-184.75" font-family="Arial" font-size="10.00" fill="white">nic_init.c</text>
</g>
<!-- init.c&#45;&gt;nic_init.c -->
<g id="edge4" class="edge">
<title>init.c&#45;&gt;nic_init.c</title>
<path fill="none" stroke="darkgreen" stroke-width="2" d="M182.71,-340.13C165.9,-336.8 144.65,-330.51 129,-318.75 94.2,-292.59 69.43,-247.73 55.91,-218.29"/>
<polygon fill="darkgreen" stroke="darkgreen" stroke-width="2" points="59.27,-217.22 52.03,-209.48 52.86,-220.04 59.27,-217.22"/>
</g>
<!-- memory.c -->
<g id="node11" class="node">
<title>memory.c</title>
<polygon fill="green" stroke="black" points="581.38,-124 522.62,-124 522.62,-88 581.38,-88 581.38,-124"/>
<text xml:space="preserve" text-anchor="middle" x="552" y="-102.5" font-family="Arial" font-size="10.00" fill="white">memory.c</text>
</g>
<!-- init.c&#45;&gt;memory.c -->
<g id="edge5" class="edge">
<title>init.c&#45;&gt;memory.c</title>
<path fill="none" stroke="darkgreen" stroke-width="2" d="M237.45,-343.19C330.66,-341.18 630.01,-333.57 644,-318.75 667.87,-293.46 661.13,-192.52 644,-162.25 633.11,-143.01 612.54,-129.73 593.61,-121.02"/>
<polygon fill="darkgreen" stroke="darkgreen" stroke-width="2" points="595.2,-117.89 584.62,-117.24 592.48,-124.35 595.2,-117.89"/>
</g>
<!-- smc_patches.c -->
<g id="node19" class="node">
<title>smc_patches.c</title>
<polygon fill="green" stroke="black" points="396.38,-288.5 313.62,-288.5 313.62,-252.5 396.38,-252.5 396.38,-288.5"/>
<text xml:space="preserve" text-anchor="middle" x="355" y="-267" font-family="Arial" font-size="10.00" fill="white">smc_patches.c</text>
</g>
<!-- init.c&#45;&gt;smc_patches.c -->
<g id="edge16" class="edge">
<title>init.c&#45;&gt;smc_patches.c</title>
<path fill="none" stroke="darkgreen" stroke-width="2" d="M237.41,-339.73C256.39,-336.14 281.77,-329.71 302,-318.75 312.28,-313.18 322.22,-305.24 330.66,-297.47"/>
<polygon fill="darkgreen" stroke="darkgreen" stroke-width="2" points="332.92,-300.16 337.64,-290.67 328.04,-295.14 332.92,-300.16"/>
</g>
<!-- api.c -->
<g id="node4" class="node">
<title>api.c</title>
<polygon fill="green" stroke="black" points="290,-445 236,-445 236,-409 290,-409 290,-445"/>
<text xml:space="preserve" text-anchor="middle" x="263" y="-423.5" font-family="Arial" font-size="10.00" fill="white">api.c</text>
</g>
<!-- packet_ops.c -->
<g id="node15" class="node">
<title>packet_ops.c</title>
<polygon fill="green" stroke="black" points="760.25,-362.75 685.75,-362.75 685.75,-326.75 760.25,-326.75 760.25,-362.75"/>
<text xml:space="preserve" text-anchor="middle" x="723" y="-341.25" font-family="Arial" font-size="10.00" fill="white">packet_ops.c</text>
</g>
<!-- api.c&#45;&gt;packet_ops.c -->
<g id="edge11" class="edge">
<title>api.c&#45;&gt;packet_ops.c</title>
<path fill="none" stroke="darkgreen" stroke-width="2" d="M286.47,-408.64C291.4,-405.68 296.71,-402.93 302,-401 429.74,-354.33 592,-346.23 672.69,-345.35"/>
<polygon fill="darkgreen" stroke="darkgreen" stroke-width="2" points="672.39,-348.85 682.36,-345.29 672.34,-341.85 672.39,-348.85"/>
</g>
<!-- 3c509b.c -->
<g id="node6" class="node">
<title>3c509b.c</title>
<polygon fill="green" stroke="black" points="289.88,-206.25 234.12,-206.25 234.12,-170.25 289.88,-170.25 289.88,-206.25"/>
<text xml:space="preserve" text-anchor="middle" x="262" y="-184.75" font-family="Arial" font-size="10.00" fill="white">3c509b.c</text>
</g>
<!-- hardware.c&#45;&gt;3c509b.c -->
<g id="edge6" class="edge">
<title>hardware.c&#45;&gt;3c509b.c</title>
<path fill="none" stroke="darkgreen" stroke-width="2" d="M246.34,-252.09C248.75,-242.41 251.82,-230.11 254.6,-218.96"/>
<polygon fill="darkgreen" stroke="darkgreen" stroke-width="2" points="257.91,-220.12 256.94,-209.57 251.12,-218.42 257.91,-220.12"/>
</g>
<!-- 3c515.c -->
<g id="node7" class="node">
<title>3c515.c</title>
<polygon fill="green" stroke="black" points="144,-206.25 90,-206.25 90,-170.25 144,-170.25 144,-206.25"/>
<text xml:space="preserve" text-anchor="middle" x="117" y="-184.75" font-family="Arial" font-size="10.00" fill="white">3c515.c</text>
</g>
<!-- hardware.c&#45;&gt;3c515.c -->
<g id="edge7" class="edge">
<title>hardware.c&#45;&gt;3c515.c</title>
<path fill="none" stroke="darkgreen" stroke-width="2" d="M216.74,-252.05C211.7,-249.17 206.31,-246.48 201,-244.5 180.73,-236.95 171.52,-247.66 153,-236.5 145.05,-231.71 138.24,-224.44 132.75,-217.03"/>
<polygon fill="darkgreen" stroke="darkgreen" stroke-width="2" points="135.78,-215.28 127.34,-208.88 129.95,-219.15 135.78,-215.28"/>
</g>
<!-- pnp.c -->
<g id="node10" class="node">
<title>pnp.c</title>
<polygon fill="green" stroke="black" points="216,-206.25 162,-206.25 162,-170.25 216,-170.25 216,-206.25"/>
<text xml:space="preserve" text-anchor="middle" x="189" y="-184.75" font-family="Arial" font-size="10.00" fill="white">pnp.c</text>
</g>
<!-- hardware.c&#45;&gt;pnp.c -->
<g id="edge8" class="edge">
<title>hardware.c&#45;&gt;pnp.c</title>
<path fill="none" stroke="darkgreen" stroke-width="2" d="M230.5,-252.09C223.76,-241.89 215.1,-228.77 207.43,-217.15"/>
<polygon fill="darkgreen" stroke="darkgreen" stroke-width="2" points="210.58,-215.57 202.15,-209.15 204.74,-219.43 210.58,-215.57"/>
</g>
<!-- eeprom.c -->
<g id="node9" class="node">
<title>eeprom.c</title>
<polygon fill="green" stroke="black" points="72.25,-124 15.75,-124 15.75,-88 72.25,-88 72.25,-124"/>
<text xml:space="preserve" text-anchor="middle" x="44" y="-102.5" font-family="Arial" font-size="10.00" fill="white">eeprom.c</text>
</g>
<!-- nic_init.c&#45;&gt;eeprom.c -->
<g id="edge9" class="edge">
<title>nic_init.c&#45;&gt;eeprom.c</title>
<path fill="none" stroke="darkgreen" stroke-width="2" d="M44,-169.84C44,-160.27 44,-148.13 44,-137.08"/>
<polygon fill="darkgreen" stroke="darkgreen" stroke-width="2" points="47.5,-137.41 44,-127.41 40.5,-137.41 47.5,-137.41"/>
</g>
<!-- buffer_alloc.c -->
<g id="node12" class="node">
<title>buffer_alloc.c</title>
<polygon fill="green" stroke="black" points="494.88,-124 421.12,-124 421.12,-88 494.88,-88 494.88,-124"/>
<text xml:space="preserve" text-anchor="middle" x="458" y="-102.5" font-family="Arial" font-size="10.00" fill="white">buffer_alloc.c</text>
</g>
<!-- nic_init.c&#45;&gt;buffer_alloc.c -->
<g id="edge10" class="edge">
<title>nic_init.c&#45;&gt;buffer_alloc.c</title>
<path fill="none" stroke="darkgreen" stroke-width="2" d="M65.64,-169.75C70.44,-166.71 75.69,-163.98 81,-162.25 127.72,-147.02 253.53,-162.33 302,-154.25 338.55,-148.16 378.53,-135.93 408.87,-125.45"/>
<polygon fill="darkgreen" stroke="darkgreen" stroke-width="2" points="409.7,-128.86 417.97,-122.24 407.37,-122.26 409.7,-128.86"/>
</g>
<!-- xms_detect.c -->
<g id="node13" class="node">
<title>xms_detect.c</title>
<polygon fill="green" stroke="black" points="496.62,-52 421.38,-52 421.38,-16 496.62,-16 496.62,-52"/>
<text xml:space="preserve" text-anchor="middle" x="459" y="-30.5" font-family="Arial" font-size="10.00" fill="white">xms_detect.c</text>
</g>
<!-- memory.c&#45;&gt;xms_detect.c -->
<g id="edge14" class="edge">
<title>memory.c&#45;&gt;xms_detect.c</title>
<path fill="none" stroke="darkgreen" stroke-width="2" d="M529.01,-87.7C517.94,-79.37 504.47,-69.22 492.3,-60.07"/>
<polygon fill="darkgreen" stroke="darkgreen" stroke-width="2" points="494.56,-57.38 484.47,-54.17 490.35,-62.98 494.56,-57.38"/>
</g>
<!-- umb_loader.c -->
<g id="node14" class="node">
<title>umb_loader.c</title>
<polygon fill="green" stroke="black" points="589.25,-52 514.75,-52 514.75,-16 589.25,-16 589.25,-52"/>
<text xml:space="preserve" text-anchor="middle" x="552" y="-30.5" font-family="Arial" font-size="10.00" fill="white">umb_loader.c</text>
</g>
<!-- memory.c&#45;&gt;umb_loader.c -->
<g id="edge15" class="edge">
<title>memory.c&#45;&gt;umb_loader.c</title>
<path fill="none" stroke="darkgreen" stroke-width="2" d="M552,-87.7C552,-80.83 552,-72.73 552,-64.97"/>
<polygon fill="darkgreen" stroke="darkgreen" stroke-width="2" points="555.5,-65.13 552,-55.13 548.5,-65.13 555.5,-65.13"/>
</g>
<!-- routing.c -->
<g id="node16" class="node">
<title>routing.c</title>
<polygon fill="green" stroke="black" points="750,-288.5 696,-288.5 696,-252.5 750,-252.5 750,-288.5"/>
<text xml:space="preserve" text-anchor="middle" x="723" y="-267" font-family="Arial" font-size="10.00" fill="white">routing.c</text>
</g>
<!-- packet_ops.c&#45;&gt;routing.c -->
<g id="edge12" class="edge">
<title>packet_ops.c&#45;&gt;routing.c</title>
<path fill="none" stroke="darkgreen" stroke-width="2" d="M723,-326.26C723,-318.89 723,-310.11 723,-301.75"/>
<polygon fill="darkgreen" stroke="darkgreen" stroke-width="2" points="726.5,-301.86 723,-291.86 719.5,-301.86 726.5,-301.86"/>
</g>
<!-- arp.c -->
<g id="node17" class="node">
<title>arp.c</title>
<polygon fill="green" stroke="black" points="750,-206.25 696,-206.25 696,-170.25 750,-170.25 750,-206.25"/>
<text xml:space="preserve" text-anchor="middle" x="723" y="-184.75" font-family="Arial" font-size="10.00" fill="white">arp.c</text>
</g>
<!-- routing.c&#45;&gt;arp.c -->
<g id="edge13" class="edge">
<title>routing.c&#45;&gt;arp.c</title>
<path fill="none" stroke="darkgreen" stroke-width="2" d="M723,-252.09C723,-242.52 723,-230.38 723,-219.33"/>
<polygon fill="darkgreen" stroke="darkgreen" stroke-width="2" points="726.5,-219.66 723,-209.66 719.5,-219.66 726.5,-219.66"/>
</g>
<!-- static_routing.c -->
<g id="node18" class="node">
<title>static_routing.c</title>
<polygon fill="green" stroke="black" points="861.38,-362.75 778.62,-362.75 778.62,-326.75 861.38,-326.75 861.38,-362.75"/>
<text xml:space="preserve" text-anchor="middle" x="820" y="-341.25" font-family="Arial" font-size="10.00" fill="white">static_routing.c</text>
</g>
<!-- cpu_detect.asm -->
<g id="node20" class="node">
<title>cpu_detect.asm</title>
<polygon fill="green" stroke="black" points="399.88,-206.25 314.12,-206.25 314.12,-170.25 399.88,-170.25 399.88,-206.25"/>
<text xml:space="preserve" text-anchor="middle" x="357" y="-184.75" font-family="Arial" font-size="10.00" fill="white">cpu_detect.asm</text>
</g>
<!-- smc_patches.c&#45;&gt;cpu_detect.asm -->
<g id="edge17" class="edge">
<title>smc_patches.c&#45;&gt;cpu_detect.asm</title>
<path fill="none" stroke="darkgreen" stroke-width="2" d="M355.43,-252.09C355.67,-242.52 355.98,-230.38 356.25,-219.33"/>
<polygon fill="darkgreen" stroke="darkgreen" stroke-width="2" points="359.74,-219.74 356.49,-209.66 352.74,-219.56 359.74,-219.74"/>
</g>
<!-- packet_api_smc.asm -->
<g id="node21" class="node">
<title>packet_api_smc.asm</title>
<polygon fill="green" stroke="black" points="523.5,-288.5 414.5,-288.5 414.5,-252.5 523.5,-252.5 523.5,-288.5"/>
<text xml:space="preserve" text-anchor="middle" x="469" y="-267" font-family="Arial" font-size="10.00" fill="white">packet_api_smc.asm</text>
</g>
<!-- nic_irq_smc.asm -->
<g id="node22" class="node">
<title>nic_irq_smc.asm</title>
<polygon fill="green" stroke="black" points="632.12,-288.5 541.88,-288.5 541.88,-252.5 632.12,-252.5 632.12,-288.5"/>
<text xml:space="preserve" text-anchor="middle" x="587" y="-267" font-family="Arial" font-size="10.00" fill="white">nic_irq_smc.asm</text>
</g>
<!-- 3com_boomerang.c -->
<g id="node23" class="node">
<title>3com_boomerang.c</title>
<polygon fill="red" stroke="black" points="415.75,-445 314.25,-445 314.25,-409 415.75,-409 415.75,-445"/>
<text xml:space="preserve" text-anchor="middle" x="365" y="-423.5" font-family="Arial" font-size="10.00" fill="white">3com_boomerang.c</text>
</g>
<!-- 3com_vortex.c -->
<g id="node24" class="node">
<title>3com_vortex.c</title>
<polygon fill="red" stroke="black" points="514.25,-445 433.75,-445 433.75,-409 514.25,-409 514.25,-445"/>
<text xml:space="preserve" text-anchor="middle" x="474" y="-423.5" font-family="Arial" font-size="10.00" fill="white">3com_vortex.c</text>
</g>
<!-- 3com_init.c -->
<g id="node25" class="node">
<title>3com_init.c</title>
<polygon fill="red" stroke="black" points="598.12,-445 531.88,-445 531.88,-409 598.12,-409 598.12,-445"/>
<text xml:space="preserve" text-anchor="middle" x="565" y="-423.5" font-family="Arial" font-size="10.00" fill="white">3com_init.c</text>
</g>
<!-- 3com_windows.c -->
<g id="node26" class="node">
<title>3com_windows.c</title>
<polygon fill="red" stroke="black" points="707.88,-445 616.12,-445 616.12,-409 707.88,-409 707.88,-445"/>
<text xml:space="preserve" text-anchor="middle" x="662" y="-423.5" font-family="Arial" font-size="10.00" fill="white">3com_windows.c</text>
</g>
<!-- 3com_performance.c -->
<g id="node27" class="node">
<title>3com_performance.c</title>
<polygon fill="red" stroke="black" points="833.75,-445 726.25,-445 726.25,-409 833.75,-409 833.75,-445"/>
<text xml:space="preserve" text-anchor="middle" x="780" y="-423.5" font-family="Arial" font-size="10.00" fill="white">3com_performance.c</text>
</g>
<!-- busmaster_test.c -->
<g id="node28" class="node">
<title>busmaster_test.c</title>
<polygon fill="yellow" stroke="black" points="949.88,-445 858.12,-445 858.12,-409 949.88,-409 949.88,-445"/>
<text xml:space="preserve" text-anchor="middle" x="904" y="-423.5" font-family="Arial" font-size="10.00">busmaster_test.c</text>
</g>
<!-- ansi_demo.c -->
<g id="node29" class="node">
<title>ansi_demo.c</title>
<polygon fill="yellow" stroke="black" points="1039.75,-445 968.25,-445 968.25,-409 1039.75,-409 1039.75,-445"/>
<text xml:space="preserve" text-anchor="middle" x="1004" y="-423.5" font-family="Arial" font-size="10.00">ansi_demo.c</text>
</g>
<!-- dma_self_test.c -->
<g id="node30" class="node">
<title>dma_self_test.c</title>
<polygon fill="yellow" stroke="black" points="1143.88,-445 1058.12,-445 1058.12,-409 1143.88,-409 1143.88,-445"/>
<text xml:space="preserve" text-anchor="middle" x="1101" y="-423.5" font-family="Arial" font-size="10.00">dma_self_test.c</text>
</g>
<!-- cache_coherency.c -->
<g id="node31" class="node">
<title>cache_coherency.c</title>
<polygon fill="red" stroke="black" points="1268,-445 1168,-445 1168,-409 1268,-409 1268,-445"/>
<text xml:space="preserve" text-anchor="middle" x="1218" y="-423.5" font-family="Arial" font-size="10.00" fill="white">cache_coherency.c</text>
</g>
<!-- dma_safety.c -->
<g id="node32" class="node">
<title>dma_safety.c</title>
<polygon fill="red" stroke="black" points="1360.25,-445 1285.75,-445 1285.75,-409 1360.25,-409 1360.25,-445"/>
<text xml:space="preserve" text-anchor="middle" x="1323" y="-423.5" font-family="Arial" font-size="10.00" fill="white">dma_safety.c</text>
</g>
<!-- hw_checksum.c -->
<g id="node33" class="node">
<title>hw_checksum.c</title>
<polygon fill="red" stroke="black" points="1465.62,-445 1378.38,-445 1378.38,-409 1465.62,-409 1465.62,-445"/>
<text xml:space="preserve" text-anchor="middle" x="1422" y="-423.5" font-family="Arial" font-size="10.00" fill="white">hw_checksum.c</text>
</g>
<!-- interrupt_mitigation.c -->
<g id="node34" class="node">
<title>interrupt_mitigation.c</title>
<polygon fill="red" stroke="black" points="1590.38,-445 1483.62,-445 1483.62,-409 1590.38,-409 1590.38,-445"/>
<text xml:space="preserve" text-anchor="middle" x="1537" y="-423.5" font-family="Arial" font-size="10.00" fill="white">interrupt_mitigation.c</text>
</g>
<!-- Active Code -->
<g id="node35" class="node">
<title>Active Code</title>
<polygon fill="green" stroke="black" points="1684,-445 1614,-445 1614,-409 1684,-409 1684,-445"/>
<text xml:space="preserve" text-anchor="middle" x="1649" y="-423.5" font-family="Arial" font-size="10.00" fill="white">Active Code</text>
</g>
<!-- Dead Code -->
<g id="node36" class="node">
<title>Dead Code</title>
<polygon fill="red" stroke="black" points="1767.75,-445 1702.25,-445 1702.25,-409 1767.75,-409 1767.75,-445"/>
<text xml:space="preserve" text-anchor="middle" x="1735" y="-423.5" font-family="Arial" font-size="10.00" fill="white">Dead Code</text>
</g>
<!-- Test Code -->
<g id="node37" class="node">
<title>Test Code</title>
<polygon fill="yellow" stroke="black" points="1846.5,-445 1785.5,-445 1785.5,-409 1846.5,-409 1846.5,-445"/>
<text xml:space="preserve" text-anchor="middle" x="1816" y="-423.5" font-family="Arial" font-size="10.00">Test Code</text>
</g>
</g>
</svg>
